<svg width="500" height="500" viewBox="0 0 500 500" fill="none" xmlns="http://www.w3.org/2000/svg">
<path d="M405.938 46.0368C415.641 46.5928 422.802 46.9841 430.224 54.7485C433.2 57.8597 434.57 66.0154 433.397 68.9068C418.836 104.779 325.294 226.759 300.82 244.269C309.043 253.871 318.966 261.835 326.351 270.311C350.616 298.429 380.537 321.795 406.914 347.698C425.168 365.624 445.617 366.298 450.83 393.253C456.56 422.872 426.434 432.345 405.533 422.037C364.337 401.72 331.516 367.858 296.537 338.855C282.436 326.829 271.945 312.613 256.015 300.751C243.184 313.754 232.429 328.045 219.762 341.016C183.306 377.927 144.651 412.598 104.008 444.84C95.1152 452.046 86.4216 452.601 75.6559 453.963C66.2752 448.919 51.7922 439.731 48.4581 429.01C48.505 424.051 52.1016 419.415 55.4384 415.895C96.0595 373.054 141.565 335.201 181.746 291.766C193.598 278.956 206.617 268.012 217.577 254.191C185.059 219.805 121.74 133.912 128.132 79.6363C128.394 77.4001 133.285 70.9661 134.979 68.7433C146.465 66.633 166.389 53.4221 177.325 65.6228C195.625 86.0408 202.447 121.107 217.166 143.918C230.965 165.307 250.212 191.629 269.188 208.538C327.216 145.143 359.098 117.732 405.938 46.0368Z" fill="white"/>
</svg>
