<svg width="975" height="768" viewBox="0 0 975 768" fill="none" xmlns="http://www.w3.org/2000/svg">
<path d="M444.228 7.83508C444.588 7.79174 444.948 7.75105 445.307 7.71308C451.367 7.07764 456.547 8.1983 460.882 11.8422C465.488 15.7145 466.079 19.4311 465.311 24.2648C466.5 26.5876 469.907 32.4292 470.267 34.6699C472.056 45.8003 461.752 52.7818 467.383 64.8892C471.983 74.7785 468.056 80.2455 461.89 87.3108C464.751 97.9752 464.646 106.468 465.832 117.35C500.457 94.9138 538.346 111.307 575.958 114.433C609.706 117.238 637.583 119.489 667.466 137.561C675.262 142.274 688.132 145.845 696.293 150.755C712.755 160.842 730.326 168.611 747.041 178.151C768.178 190.204 788.053 205.934 808.858 218.277C830.487 231.109 863.956 241.09 878.632 262.912C879.123 280.261 878.007 294.572 876.228 311.701C875.198 321.605 875.331 331.982 873.937 342.062C883.917 344.185 897.059 351.167 902.478 359.909C906.256 365.999 908.548 371.813 914.604 376.093C924.531 383.101 937.68 380.52 947.13 388.685C957.881 397.313 957.197 413.307 947.342 422.343C944.095 425.32 942.926 425.587 938.517 427.127C936.445 430.631 934.386 434.145 932.347 437.67C947.09 443.088 945.596 446.176 940.781 460.151C936.405 472.864 928.861 477.416 916.144 479.614C912.173 480.3 915.274 489.686 914.338 492.172C911.642 502.859 895.532 510.28 885.392 511.605C875.085 512.4 870.835 509.03 860.675 516.002C854.134 520.49 856.678 526.321 854.878 533.76C853.251 540.5 851.013 546.446 844.983 550.246C829.219 560.183 820.433 550.239 805.744 546.518C802.019 545.574 798.951 546.622 795.285 547.565C793.525 550.465 791.653 553.295 789.674 556.046C778.816 571.116 764.38 580.312 745.965 583.332C740.135 595.614 716.687 624.714 699.567 619.918C693.132 618.116 685.177 605.4 682.056 599.132C675.03 599.151 663.628 599.194 656.921 600.094C638.447 619.81 631.122 615.087 608.039 609.605C623.718 631.119 595.422 655.618 574.265 649.106C564.151 645.995 558.46 637.8 553.779 628.56C547.105 630.057 537.471 630.958 531.839 633.879C512.23 644.048 495.208 661.886 477.912 636.329C475.55 632.838 475.199 630.485 474.623 626.286C461.585 630.775 456.979 635.659 442.839 634.055C440.535 631.739 439.16 630.408 435.857 630.027C429.899 629.34 423.055 631.128 417.083 630.863C404.593 630.31 392.007 628.576 379.709 626.515C375.737 629.295 365.412 636.181 360.713 634.248C357.671 629.677 351.371 594.397 348.117 584.069C338.002 580.865 325.649 581.049 315.185 577.592C303.449 573.714 293.078 567.912 281.235 564.009C274.235 561.702 269.524 564.601 265.037 562.815C255.11 558.863 259.227 556.917 247.315 556.04C245.425 577.514 235.268 582.05 216.405 587.883C223.546 597.131 231.579 604.402 243.882 606.706C254.263 608.649 267.118 606.745 274.987 598.577C277.455 596.016 278.164 591.711 281.964 589.248C285.446 586.992 291.05 588.67 293.984 591.658C296.348 598.094 295.246 605.594 296.229 612.256C300.4 640.505 314.702 648.183 337.296 661.043C344.515 665.199 351.595 669.594 358.523 674.22C375.275 685.226 390.087 697.167 405.726 709.56C412.383 714.831 431.93 725.544 439.953 727.668C449.826 730.29 473.272 728.139 483.587 725.352C497.16 719.849 513.686 711.757 526.774 704.94C531.825 702.312 534.844 696.643 541.609 694.028C546.946 691.837 555.319 686.925 561.037 686.029C585.189 682.245 603.198 667.841 625.411 658.893C644.523 651.211 663.933 644.289 683.59 638.141C704.162 631.91 710.876 634.818 730.997 622.836C752.838 611.18 767.713 590.965 793.027 585.902C802.404 584.026 811.694 583.778 821.237 584.026C835.906 584.406 855.369 588.788 868.026 579.556C890.18 563.395 888.958 519.145 896.455 514.503C898.527 513.22 901.914 513.486 904.198 514.073C906.104 514.561 906.821 515.355 907.79 516.943C908.315 529.428 899.41 562.24 892.437 573.648C887.988 580.926 884.17 586.405 877.509 591.995C873.12 595.654 866.121 601.492 860.529 602.764C834.637 608.652 807.617 599.223 781.991 609.074C770.31 613.564 761.458 619.974 751.264 627.016C739.583 635.09 727.205 642.47 714.522 648.863C705.305 653.422 691.831 654.357 681.83 657.414C664.584 662.686 645.506 668.366 628.977 675.276C612.502 682.571 597.521 692.534 580.926 699.663C569.756 704.628 555.492 705.312 544.693 710.921C521.47 722.988 502.137 739.158 476.261 745.597C465.398 748.299 461.26 749.414 449.654 749.706C434.465 750.078 422.865 748.597 409.479 740.785C393.542 732.195 380.713 721.853 366.324 711.007C354.998 702.497 343.519 694.193 331.891 686.109C319.324 677.347 304.426 671.844 293.923 660.492C283.438 649.161 279.263 639.621 275.009 625.214C264.212 625.754 260.462 627.352 250.752 630.728C243.048 633.407 226.462 628.552 219.384 624.283C206.848 616.722 195.154 606.5 190.802 592.205C192.515 588.938 194.814 586.721 195.071 583.311L194.335 583.043C190.59 587.292 188.499 593.462 184.81 598.194C179.872 604.7 171.799 613.362 163.416 614.519C149.558 616.43 147.208 592.184 146.26 582.919C120.791 584.307 109.012 577.141 102.102 554.279C96.2636 534.96 113.513 531.39 115.248 523.728L114.367 522.953C107.763 520.727 99.1802 531.302 91.4087 527.954C89.4875 526.25 88.8593 524.629 88.6986 522.126C87.8021 508.176 107.616 502.538 114.875 493.144C113.072 489.204 111.629 483.93 111.344 479.625C109.919 458.174 123.606 449.785 135.905 435.33C132.574 434.539 130.918 434.584 129.196 431.881C129.019 429.437 130.657 427.166 131.889 424.931L138.413 426.726C158.187 406.999 179.717 405.194 204.019 395.296C191.126 391.953 182.564 393.017 170.099 391.067C153.203 388.424 135.981 382.152 119.394 378.35C104.493 374.934 89.3162 372.547 74.8091 366.114C70.9509 364.403 72.7737 359.241 71.9124 357.45C67.6631 351.965 55.1276 348.076 48.8283 344.12C31.2944 333.109 26.5204 323.976 37.9828 305.311C37.7843 302.204 38.0021 298.537 38.1057 295.383C40.9485 290.762 45.1421 287.983 49.572 285.006C62.0963 276.591 106.097 259.86 120.483 262.368C121.437 262.534 122.24 262.685 122.984 263.349C126.757 266.724 129.94 271.383 133.346 275.165C138.436 280.819 144.072 285.971 149.745 291.028C156.936 291.83 159.933 291.005 166.806 289.408C166.345 282.175 166.521 267.566 166.474 259.247C166.806 238.614 158.983 213.675 167.75 194.178C171.299 186.285 196.124 161.721 204.559 158.35C211.893 155.421 234.763 150.158 242.442 150.466C289.06 152.972 335.126 140.486 381.085 136.335C403.786 134.284 406.3 135.177 429.336 127.823C429.077 119.313 428.717 110.566 429.78 102.093C430.065 99.8172 431.031 99.0671 432.439 97.2835L432.126 96.5275C427.902 96.1538 424.843 96.712 422.905 92.5627C422.777 86.6789 428.387 80.5906 431.982 76.0185C425.21 69.67 423.535 68.4467 424.473 59.076C417.777 46.8977 416.642 43.7436 426.178 33.9229C427.004 29.9451 423.667 29.6003 423.325 26.2675C422.154 14.8581 435.633 9.62206 444.228 7.83508ZM476.128 192.919C472.392 203.572 467.83 203.438 457.253 202.534C455.962 204.277 454.55 206.28 453.211 207.951C446.636 205.645 439.22 200.5 432.7 197.333C429.078 195.574 422.458 194.221 420.202 192.426L419.886 191.524C423.536 189.029 432.895 191.762 436.792 193.534L430.119 135.81C419.561 138.479 413.787 143.34 404.777 145.956C395.173 148.743 382.069 149.554 372.168 151.403C340.728 154.165 309.851 160.776 278.461 164.082C256.496 166.395 234.502 163.353 212.855 168.968C211.448 169.333 205.851 173.041 204.326 174.038C203.236 176.238 199.285 182.621 199.31 184.022C199.797 185.139 201.842 189.815 201.879 190.699C202.051 194.689 199.739 196.769 202.036 200.948C211.091 217.42 224.074 227.01 239.564 236.761C246.439 241.089 250.383 244.872 258.273 247.741C271.591 252.583 282.013 255.333 296.295 254.513C301.611 254.208 309.032 253.327 314.294 253.857C315.33 253.961 316.149 255.821 316.485 256.421C317.424 258.1 318.798 268.854 319.47 269.882C324.251 277.196 330.437 287.011 335.191 294.149C343.566 306.728 358.129 316.894 368.437 327.646C377.89 337.506 387.341 347.184 396.863 356.959C403.399 363.669 409.096 371.359 416.299 377.628C420.499 381.284 424.022 383.376 429.078 385.581C432.836 387.22 437.411 388.875 441.478 388.935C449.027 389.047 473.537 383.184 480.184 380.577C526.596 365.566 571.735 346.962 618.498 333.415C634.336 328.825 660.885 321.577 676.956 319.364C706.938 315.233 729.755 304.205 758.317 296.599C782.668 290.113 811.349 290.061 836.138 286.111C839.644 285.819 860.582 279.069 856.784 273.599C850.668 264.783 827.857 251.95 817.75 247.995C787.994 236.355 766.385 216.545 739.258 200.371C719.542 188.617 699.009 177.802 679.067 166.357C661.344 157.22 639.682 150.984 621.613 141.806C612.595 138.054 597.866 137.654 588.19 135.342C582.094 133.847 572.572 135.676 567.06 134.586C557.584 132.712 544.486 135.308 536.037 134.086C512.898 130.738 490.391 131.074 467.051 131.313C467.447 142.287 469.131 158.448 470.534 169.512C471.274 175.347 475.239 185.185 476.128 192.919ZM666.51 421.866C651.848 428.14 642.63 433.093 628.944 439.472C650.958 450.164 675.847 452.909 700.158 453.78C702.934 453.879 707.655 455.004 709.707 454.139L709.521 453.369C705.198 451.035 700.497 449.863 699.076 445.472L699.534 441.884C703.166 438.956 704.74 439.47 709.734 439.93C710.81 441.146 710.896 441.373 711.633 442.838C718.008 447.251 734.895 445.732 740.692 440.427C742.552 436.177 736.23 429.571 734.417 423.628C730.758 428.908 726.78 435.369 719.748 436.182C705.112 437.874 681.106 420.888 666.51 421.866ZM169.488 596.593C173.23 589.72 190.188 561.705 201.101 565.558C204.301 566.689 205.933 576.163 210.494 576.109C217.897 577.489 228.011 570.509 228.543 562.75L229.528 552.826C239.536 538.593 260.06 528.856 273.04 543.768C275.436 546.519 278.847 548.331 282.177 549.779C285.664 548.155 294.336 544.443 296.622 541.821C297.702 538.001 297.59 536.131 301.3 534.255C300.323 531.535 288.182 524.44 285.192 523.282C261.594 514.141 239.554 503.548 217.062 492.026C204.333 485.506 189.26 480.897 176.306 474.383C163.117 467.985 157.391 461.85 141.743 457.917C137.424 467.595 134.913 471.314 135.065 482.14C136.933 484.275 138.833 486.382 140.766 488.46C137.683 492.31 134.366 497.179 130.958 500.361C125.254 505.683 119.447 509.505 114.161 515.403C134.799 515.902 131.925 526.789 120.606 539.115C119.896 539.887 120.396 545.644 120.766 546.834C125.308 561.48 139.057 569.627 153.811 566.551C157.482 568.668 158.577 569.467 161.751 572.278C163.824 581.736 164.43 588.023 169.488 596.593ZM438.759 517.445C460.402 520.515 503.001 512.549 525.502 509.549C531.928 508.692 546.122 499.68 551.76 496.118C559.051 491.507 573.236 471.954 574.843 464.062L574.438 463.758C566.223 467.42 558.175 471.361 549.941 475.021C545.538 476.978 540.511 478.141 536.536 480.168C525.006 497.928 509.862 503.766 489.465 505.056C486.016 505.275 481.751 503.743 478.23 504.367C469.358 507.113 460.867 510.41 451.783 512.661C447.345 513.76 442.91 515.934 438.286 517.064L438.759 517.445ZM390.706 600.422C378.634 594.296 378.685 587.712 363.812 584.952C366.424 596.43 366.754 608.061 369.553 619.263C374.213 616.146 378.012 613.621 382.328 610.07C385.382 607.28 388.095 603.664 390.706 600.422ZM75.9108 347.434C77.5158 343.883 80.356 337.988 81.5347 334.479C71.8354 330.414 61.7523 326.011 52.2542 321.438C48.4578 319.609 44.9661 314.691 42.1903 313.87C33.6199 330.23 49.8343 338.235 62.1886 344.544C64.5845 345.767 72.0758 349.436 74.5195 349.379L75.9108 347.434ZM592.706 468.575C584.983 490.504 566.648 508.352 545.614 517.77C539.056 520.706 529.802 525.42 522.744 527.016C492.092 533.895 458.703 538.023 427.293 536.291C416.348 535.688 393.882 527.762 384.086 523.101C373.415 518.024 355.526 501.2 348.43 491.699C323.094 491.163 309.068 493.058 284.033 484.198C268.857 478.826 269.443 480.371 254.891 470.565C254.378 468.937 254.433 468.609 254.404 466.874C251.458 464.056 245.864 460.96 242.043 458.275C232.549 451.605 223.981 443.851 216.386 435.025C214.062 432.324 202.48 412.243 201.634 412.185C187.923 416.379 166.574 421.581 155.708 430.199C184.797 436.084 209.007 454.013 233.489 469.276C244.56 476.178 259.532 482.875 271.125 489.345C284.185 496.634 296.644 497.11 309.636 504.978C324.15 513.767 335.916 523.449 349.354 533.524C357.957 539.227 366.764 545.037 375.582 550.396C383.227 555.042 391.211 562.584 398.754 566.855C415.289 576.215 428.364 582.92 443.36 594.952C451.653 590.215 453.451 591.116 462.278 588.997C465.684 588.179 472.316 582.427 475.995 581.007C490.023 574.77 504.256 568.419 518.21 562.004C536.826 553.446 555.399 542.972 573.833 533.892C582.48 529.634 592.015 523.155 600.761 519.026C607.375 515.577 616.579 510.15 622.728 507.165C631.009 503.149 646.349 498.083 655.035 495.758C630.485 493.99 608.239 488.942 592.706 468.575ZM300.454 441.253C302.47 442.198 304.306 443.453 306.157 442.9C303.907 440.582 302.464 440.402 299.536 439.034C277.363 425.699 269.764 416.484 265.52 390.531C249.187 395.592 240.214 395.955 223.025 396.16C224.614 401.496 227.533 412.558 229.718 417.18C236.441 431.399 251.195 441.657 264.488 449.064C276.112 455.541 285.707 458.812 297.988 463.225C305.016 465.75 310.616 468.763 318.213 470.89C325.016 472.794 330.042 473.327 336.624 474.711L332.182 467.748C332.26 463.015 332.593 462.025 334.135 457.586C330.152 454.598 324.236 450.527 319.654 448.64C315.641 451.086 310.287 454.246 305.437 452.81C286.077 447.076 274.695 437.193 260.773 423.906C262.49 421.902 263.916 419.803 266.346 418.897C269.241 419.363 272.629 423.185 274.891 425.322C281.155 431.237 292.12 439.217 300.454 441.253ZM129.797 295.453C123.541 290.381 118.976 282.59 112.584 283.257C112.232 283.295 111.881 283.336 111.53 283.381C103.997 283.469 64.9132 295.393 60.371 299.828C59.5549 300.626 59.626 300.963 59.4586 302.086C63.014 308.826 92.7102 314.158 94.9448 325.157C96.0392 330.544 90.5082 342.837 88.5778 348.484C102.508 351.185 117.306 355.951 131.667 358.712C146.707 361.604 162.545 368.358 178.002 370.67C198.956 374.605 220.412 376.331 241.725 376.129C246.131 376.087 260.462 377.009 262.906 373.516C262.833 369.584 262.519 366.401 262.124 362.518C262.091 360.309 262.255 353.022 261.449 351.499C257.936 351.049 253.33 353.658 249.261 353.518C228.806 352.812 205.472 351.871 188.123 339.749C175.881 331.194 173.706 323.897 158.994 317.443C149.095 319.89 140.879 324.451 130.131 327.186C129.056 324.982 127.704 322.926 127.868 320.595C135.469 317.418 144.081 315.226 151.274 311.759C146.202 308.565 140.683 303.633 136.57 301.297C126.624 303.689 110.854 309.649 102.043 309.755C100.401 308.545 100.915 309.171 100.358 306.807C101.986 300.588 123.422 297.127 129.797 295.453ZM684.387 419.032C687.534 420.059 694.155 422.379 697.07 422.935C705.165 426.193 712.855 430.535 721.289 430.621C725.074 425.832 728.965 420.104 728.985 413.79L728.208 412.22C726.654 411.831 726.594 411.863 725.001 412.195C714.621 412.891 694.261 416.148 684.387 419.032ZM757.653 438.262C746.742 451.973 746.769 447.926 734.151 455.397C758.894 457.955 786.48 459.278 810.386 451.599C827.326 446.138 848.656 438.623 862.362 426.891C873.452 417.395 898.507 393.682 886.434 377.859C883.519 374.044 873.332 365.433 868.584 365.592C865.204 366.537 862.906 367.151 859.653 368.578C865.41 374.69 867.482 380.415 867.827 388.939C868.093 395.552 862.78 395.365 859.633 398.448C854.997 402.985 844.705 415.044 837.128 410.26C836.749 409.109 836.497 408.543 837.367 407.462C840.129 404.047 857.142 388.829 849.957 384.006C844.937 385.04 824.139 398.505 816.356 399.511C801.693 401.408 785.112 396.537 770.071 399.159C762.374 400.501 753.323 405.188 745.48 407.822C749.485 415.306 759.837 430.385 757.653 438.262ZM909.112 395.06C908.176 398.023 907.146 400.959 906.728 404.015C906.13 408.445 909.059 422.919 907.286 426.254C904.019 432.422 893.985 447.221 889.635 452.404C879.163 464.884 865.131 476.903 850.854 484.708C829.73 496.031 815.333 500.342 791.121 500.535C781.194 500.614 772.534 501.336 762.288 499.681C744.869 496.866 733.315 495.08 715.451 496.317C710.517 499.467 701.646 504.809 697.376 508.142C689.048 514.649 683.981 519.296 675.023 525.233C678.005 526.596 680.342 527.683 683.483 528.716C673.137 536.781 676.537 545.409 659.225 551.805C658.03 556.368 657.658 558.813 653.142 561.128C638.945 568.405 621.872 563.625 606.366 566.545C600.901 579.959 575.049 590.937 562.365 597.326C553.872 601.601 541.175 603.687 532.171 607.179C521.418 611.35 511.064 616.45 499.996 619.936C498.787 620.317 497.079 621.497 496.386 622.575C497.493 625.865 501.087 627.453 504.228 628.986C505.23 629.469 506.252 629.91 507.291 630.309C512.614 627.072 516.767 622.923 521.965 619.704C531.29 613.93 546.773 607.739 557.73 609.67C565.108 610.969 565.871 619.723 570.082 625.545C580.547 630.626 585.707 633.115 595.382 625.036C586.816 613.842 583.655 604.756 594.639 593.174C598.258 590.694 602.468 588.869 606.446 586.98C618.658 588.8 622.184 591.848 632.915 595.516C646.402 585.522 651.549 577.769 669.658 578.497C679.612 578.898 680.323 576.189 690.768 581.272C693.876 585.905 696.22 591.877 698.923 595.587C704.893 598.145 707.25 598.686 713.924 599.709C725.047 592.028 722.829 589.375 731.349 580.815C720.83 570.433 711.062 550.951 735.314 546.124C740.36 545.119 743.541 565.69 754.346 565.59C764.22 565.497 773.318 554.986 778.338 548.121C776.638 547.76 773.497 547.265 772.541 545.876C768.776 540.436 768.357 531.724 769.665 525.564C771.033 519.03 774.978 513.322 780.603 509.727C789.899 503.762 825.301 500.439 823.03 518.554C821.98 526.915 798.094 523.74 794.707 527.505C796.195 529.349 809.781 528.854 813.248 529.578C819.882 530.964 832.658 539.995 838.416 533.371C838.177 525.417 836.882 520.416 842.287 515.069C863.863 493.712 866.134 490.695 895.99 490.068C891.939 472.892 890.717 471.126 905.632 460.259C910.088 460.477 919.172 461.258 923.044 460.469L923.828 459.68C921.683 457.203 919.186 457.338 917.3 455.665C901.914 441.981 917.014 427.43 926.504 418.061C951.665 412.208 928.861 399.327 917.22 397.831C915.135 397.563 911.582 395.489 909.112 395.06ZM436.075 33.4721C434.222 37.3833 433.493 38.8173 432.486 43.1184L438.322 55.6165C445.016 54.246 449.799 52.8507 453.613 46.7613C456.637 41.9345 458.337 36.0572 453.75 31.9033L452.778 31.7489C445.916 34.1953 443.258 33.7612 436.075 33.4721ZM152.65 439.742L151.737 441.791C154.995 444.028 160.897 445.49 164.011 447.717C181.473 460.214 214.167 468.204 229.416 481.033C251.387 499.516 260.69 500.584 285.685 511.652C309.119 522.028 338.728 545.604 355.273 565.349C364.594 566.263 374.858 567.313 383.85 570.131L384.304 569.407L383.028 567.956C369.432 558.563 355.595 550.358 342.073 541.273C325.366 530.05 311.284 514.912 291.583 507.704C287.235 505.953 289.257 502.836 284.404 504.031C283.885 502.97 283.962 502.949 283.886 501.752C281.982 501.725 282.248 503.388 280.476 502.47C251.97 487.702 222.853 475.696 196.189 457.318C185.301 449.813 165.508 443.075 152.65 439.742ZM650.48 539.699C654.258 539.922 660.241 540.283 661.742 535.571L661.111 534.38C659.451 533.936 658.408 533.679 656.715 533.433C654.265 534.311 645.712 537.817 644.649 539.829C646.422 539.654 648.866 539.218 650.48 539.699ZM165.495 309.644C165.693 306.067 166.28 306.13 164.709 303.622C161.838 301.599 156.847 301.628 153.066 301.226C155.527 303.796 162.273 308.419 165.495 309.644ZM380.865 493.597C377.24 488.628 371.789 480.131 366.045 478.03C368.76 481.288 377.591 491.738 380.865 493.597ZM156.056 294.727C157.787 295.465 163.279 296.683 164.842 295.922L164.489 294.693C161.857 294.032 158.8 294.489 156.056 294.727ZM310.596 549.378C308.748 550.429 307.058 550.875 306.518 552.461C308.528 553.361 310.646 553.533 312.825 553.835L315.164 554.518L315.486 553.843C313.606 551.821 312.774 551.083 310.596 549.378ZM447.02 15.9367L449.255 16.1527L449.749 15.4243C447.386 13.607 446.037 14.3006 443.451 13.8451C441.759 14.2311 440.638 14.1671 439.625 15.2569C442.572 15.816 444 15.8625 447.02 15.9367ZM445.396 616.598C445.764 614.019 446.333 611.49 445.774 608.97L444.863 608.44C441.366 609.518 441.795 609.563 437.667 607.162C425.409 600.03 424.901 599.133 411.056 599.067L409.789 600.886C411.701 607.788 428.928 612.992 435.545 614.981C437.871 615.68 442.258 615.757 445.396 616.598ZM435.576 63.9856C438.877 67.4185 445.206 71.907 445.242 76.3431C445.249 77.2452 444.763 78.9637 444.735 80.4287C447.702 81.0506 451.78 77.9275 453.843 75.8857C457.476 70.9292 455.891 69.6362 454.083 64.0765L445.237 66.2926C442.923 65.6484 437.722 64.013 435.576 63.9856ZM495.543 117.577L495.099 117.653C482.6 119.684 481.642 117.786 468.372 123.778C481.633 121.718 498.612 121.404 512.126 122.014C516.597 122.362 530.293 124.24 533.458 123.61C532.47 122.02 523.542 119.534 521.248 118.995C513.228 117.109 503.71 116.319 495.543 117.577ZM447.689 92.7731C445.349 93.3964 442.878 93.7648 441.13 95.3008C441.874 97.5305 443.01 97.8743 442.964 100.15C442.797 108.421 444.161 118.464 443.569 126.594C445.71 126.043 448.73 125.355 450.732 124.608C450.652 118.403 450.496 97.2895 448.011 92.9941L447.689 92.7731ZM646.562 545.591L649.47 547.09L649.052 547.816C645.632 547.87 646.276 545.67 643.374 546.252C632.45 548.443 621.341 551.235 612.01 557.548L611.486 558.707L611.997 559.488C622.37 558.166 652.06 559.004 652.644 546.903L652.166 545.772C649.616 545.217 649.105 545.318 646.562 545.591ZM450.19 131.112C447.985 131.826 445.869 132.173 444.532 133.911C443.165 143.923 450.744 174.627 454.329 184.719L456.096 185.72L456.874 185.392C454.621 170.058 453.814 154.52 452.417 139.091C452.182 136.494 452.11 133.851 451.605 131.291L450.19 131.112ZM698.744 495.893C688.962 496.618 679.592 496.262 670.156 497.489C667.599 497.822 662.592 503.34 659.424 504.856C657.001 506.018 652.346 507.417 650.4 508.459C642.717 512.584 631.713 516.494 624.521 520.46C608.358 529.372 592.633 538.855 576.357 547.666C550.106 561.584 523.526 574.887 496.648 587.562C486.279 592.496 471.325 600.458 460.937 604.435L460.697 614.702C466.32 612.995 480.934 609.41 484.184 605.99C485.162 603.766 485.122 603.037 485.263 600.695C492.722 598.652 509.08 594.187 515.331 590.457C524.927 584.731 528.593 581.604 539.562 576.788C553.208 570.798 568.714 567.371 581.444 560.619C588.503 556.948 595.396 552.966 602.103 548.685C608.046 544.911 613.432 541.305 619.621 537.907C632.41 530.892 647.637 526.399 660.308 520.617C670.142 516.029 679.559 510.593 688.451 504.371C691.452 502.308 696.718 498.91 699.096 496.409L698.744 495.893ZM886.946 420.992C861.087 449.119 818.687 469.383 780.53 471.267C766.02 471.984 738.282 466.782 723.447 464.918C711.919 463.47 700.297 463.082 688.982 461.922C674.12 460.301 659.365 457.872 644.769 454.646C634.801 452.475 627.43 447.825 619.335 444.004C616.944 442.874 602.893 450.495 598.889 452.196C598.284 453.836 598.855 454.187 599.619 456.193C644.988 489.427 694.341 474.807 746.032 476.92C763.729 477.643 782.21 486.282 801.594 482.632C834.724 476.389 879.568 460.084 887.278 422.006C887.165 421.668 887.058 421.33 886.946 420.992ZM832.532 374.241C842.055 369.4 850.475 365.349 857.162 356.928C854.792 345.815 858.391 334.436 859.467 323.311C860.476 312.873 860.204 302.173 862.521 291.906C850.097 299.418 840.627 304.417 825.832 305.681C822.392 305.974 821.23 306.321 818.328 308.173L817.312 307.793L816.601 305.833C814.118 305.506 813.673 306.497 812.424 308.511C808.015 309.733 806.508 305.387 804.655 310.493C801.414 310.624 799.987 308.478 797.563 308.644C782.581 309.675 767.474 311.854 752.626 313.858C734.988 316.106 718.148 326.428 701.606 330.381C671.152 337.663 640.299 343.128 610.277 352.398C586.404 359.77 563.301 369.732 539.357 377.029C537.277 377.848 535.069 378.712 533.029 379.598C514.715 387.552 495.121 393.27 475.882 398.55C458.743 403.254 432.785 414.077 415.978 405.423C409.046 401.852 402.612 397.389 396.838 392.148C387.415 383.584 373.371 366.064 362.909 355.41C354.721 347.016 346.339 338.813 337.769 330.81C332.659 326.017 326.665 320.937 322.041 315.769C310.451 302.814 309.618 289.327 292.2 282.307C289.892 278.543 291.199 276.396 292.458 272.423C280.949 272.677 265.224 272.35 254.283 269.004C231.156 261.929 207.409 244.975 191.405 227.013C189.058 224.38 183.377 210.903 182.249 209.925C183.895 241.266 184.241 271.568 185.767 302.542C192.944 311.986 194.417 318.237 206.973 323.71C210.466 325.233 221.872 328.606 225.238 330.917C225.21 331.33 225.182 331.745 225.154 332.159C223.791 333.193 223.092 333.729 221.608 334.562C232.972 338.106 251.22 338.477 262.237 332.886C267.27 319.838 269.3 312.496 284.237 319.469C286.149 332.501 283.847 345.02 284.486 358.096C285.001 368.643 288.077 379.02 288.718 389.73C289.19 397.634 298.414 408.127 304.601 412.424C326.258 426.653 350.076 435.277 371.606 450.023C389.461 462.251 399.882 476.714 415.409 491.157C419.926 495.36 425.398 498.11 430.496 501.457C433.805 500.503 438.267 499.414 441.454 498.173C454.9 492.937 468.794 490.632 482.181 485.329L483.58 479.136C488.675 478.633 495.286 478.107 500.137 476.563C542.474 463.092 582.114 441.969 622.722 424.258C631.507 420.427 639.868 414.25 648.919 410.766C668.25 402.813 688.71 398.129 709.375 395.235C718.612 393.959 728.009 394.51 737.153 392.188C751.663 388.936 765.249 382.073 779.746 379.817C793.658 377.652 808.108 382.244 821.781 379.363C826.257 378.42 827.671 375.586 832.532 374.241Z" fill="black"/>
<path d="M775.868 412.136C785.464 409.945 800.644 414.99 810.479 415.605C816.057 415.953 831.729 412.812 835.507 418.924C840.747 427.411 819.802 437.41 813.885 440.27C806.435 443.873 793.406 447.226 785.311 444.858C780.709 443.514 781.718 440.045 778.743 436.658C774.314 430.929 762.733 426.701 759.12 421.013C755.455 415.231 773.258 412.522 775.868 412.136ZM775.137 421.433C781.18 425.812 787.316 431.015 793.127 435.763C800.611 436.316 804.197 434.203 810.93 431.052C815.546 428.442 817.797 426.937 821.741 423.121C807.384 423.36 799.004 418.782 782.854 420.099C780.197 420.495 777.76 420.842 775.137 421.433Z" fill="black"/>
<path d="M153.066 301.226C156.847 301.628 161.839 301.598 164.709 303.622C166.28 306.129 165.693 306.066 165.495 309.644C162.274 308.419 155.527 303.796 153.066 301.226Z" fill="black" fill-opacity="0.0117647"/>
<path d="M366.045 478.029C371.789 480.131 377.24 488.627 380.865 493.597C377.591 491.738 368.76 481.287 366.045 478.029Z" fill="black" fill-opacity="0.0901961"/>
<path d="M310.597 549.378C312.774 551.083 313.606 551.821 315.486 553.843L315.164 554.518L312.825 553.835C310.646 553.533 308.528 553.361 306.519 552.461C307.058 550.875 308.748 550.429 310.597 549.378Z" fill="black" fill-opacity="0.0196078"/>
<path d="M443.451 13.8452C446.037 14.3007 447.386 13.6071 449.749 15.4244L449.255 16.1528L447.02 15.9367C444 15.8626 442.571 15.8161 439.625 15.257C440.638 14.1672 441.759 14.2312 443.451 13.8452Z" fill="black" fill-opacity="0.0392157"/>
<path d="M156.056 294.727C158.801 294.489 161.857 294.032 164.49 294.693L164.842 295.922C163.279 296.683 157.787 295.465 156.056 294.727Z" fill="black" fill-opacity="0.211765"/>
<path d="M299.537 439.034C302.464 440.402 303.907 440.581 306.157 442.9C304.306 443.453 302.47 442.198 300.454 441.253L299.537 439.034Z" fill="black" fill-opacity="0.0705882"/>
</svg>
