<svg width="606" height="606" viewBox="0 0 606 606" fill="none" xmlns="http://www.w3.org/2000/svg">
<path d="M270.941 12.0929C293.231 9.7524 317.961 24.6803 328.745 44.0382C334.947 55.3943 339.363 67.6372 341.84 80.3367C348.501 115.486 342.325 169.681 335.332 205.387C333.911 212.634 333.433 219.859 331.454 226.756C354.584 204.313 394.142 184.076 426.428 181.895C490.769 177.549 522.113 245.528 498.413 299.994C489.84 319.696 484.574 326.619 470.449 342.958C471.625 344.245 473.344 346.231 473.882 347.878C482.641 374.771 489.568 403.556 485.059 431.89C481.698 451.711 470.336 472.492 449.558 477.918C411.886 487.76 374.187 468.825 352.392 438.332C359.066 489.405 361.012 540.445 337.843 587.737C335.047 589.151 330.458 592.344 327.696 594.149C321.168 592.457 317.582 587.704 311.154 587.87C310.164 587.89 310.138 587.618 309.162 586.947C306.744 581.637 309.255 576.493 311.526 571.574C321.739 549.475 325.604 527.396 326.633 503.15C326.441 494.362 327.802 484.821 327.41 476.624C326.534 458.509 324.07 439.637 321.58 421.65C320.962 417.155 320.962 411.206 319.521 407.21L318.711 406.846C317.648 409.395 316.307 428.431 316.154 432.05C314.395 478.605 291.212 556.428 228.726 526.48C200.949 513.167 184.955 471.588 190.682 442.647C177.59 449.268 164.986 450.614 150.692 447.311C111.648 438.288 97.7129 392.85 107.491 357.765C116.508 325.245 143.69 298.95 173.475 284.546C181.67 280.584 193.608 277.679 200.663 273.265C163.975 265.67 148.416 260.884 122.391 234.093C78.0566 188.454 100.175 85.4525 175.694 97.9184C184.215 99.325 191.446 101.744 199.613 104.281C199.105 101.824 198.79 99.8294 198.67 97.3416C197.585 74.7005 205.641 52.5719 221.031 35.9248C234.389 21.3222 251.155 13.0076 270.941 12.0929ZM282.877 282.837C281.737 283.476 277.5 285.984 276.443 286.143C264.118 288.189 252.176 285.29 239.611 287.253C197.736 293.795 164.196 308.059 141.881 345.641C116.11 389.043 142.525 446.238 198.233 422.782C202.667 420.916 201.64 412.511 207.167 414.531C218.478 419.803 214.921 435.485 215.301 444.64C216.059 462.898 221.711 493.185 240.07 501.32C245.653 503.744 251.974 503.843 257.63 501.594C288.802 489.11 290.488 389.248 291.889 359.188C293.669 347.314 296.086 294.751 303.072 287.761C306.379 287.117 314.647 290.599 319.362 291.535C326.407 302.583 327.802 315.864 332.271 329.15C345.811 369.221 360.368 415.12 395.058 442.124C401.168 446.878 408.718 452.198 416.773 453.648C437.757 457.427 451.41 451.214 455.959 428.309C458.669 410.848 458.669 380.576 453.775 363.652C444.611 340.025 452.838 327.648 464.167 307.016C477.336 283.03 483.027 250.33 467.122 225.894C440.573 185.097 387.534 213.517 357.532 234.094C344.795 242.832 332.118 253.536 320.251 263.529C310.012 272.372 314.116 277.693 296.438 279.479C294.904 276.375 293.125 273.14 293.291 269.672C293.769 259.666 297.262 248.565 299.679 238.741C301.903 229.455 303.936 220.123 305.768 210.753C307.515 202.192 308.677 192.7 309.892 183.472C315.41 141.445 327.696 79.4459 295.781 45.0963C289.738 38.5919 278.977 34.5474 270.231 35.8578C232.049 42.8162 226.587 78.5976 216.403 109.724C215.553 111.409 212.037 112.847 210.36 113.059C189.431 115.709 167.233 107.917 148.674 121.529C130.801 134.64 122.298 162.039 126.261 183.354C139.3 253.499 224.243 243.023 276.422 259.432C289.791 263.639 285.246 272.288 282.877 282.837Z" fill="black"/>
</svg>
