<svg width="1360" height="768" viewBox="0 0 1360 768" fill="none" xmlns="http://www.w3.org/2000/svg">
<path d="M193.425 35.4931C219.247 25.6044 245.009 33.2693 265.233 50.9941C272.786 57.6147 280.235 66.0295 289.264 69.9512C293.326 71.7147 297.765 71.1468 301.939 70.6025C321.685 68.027 330.608 53.0565 347.249 45.4336C352.505 43.0259 357.618 43.0775 363.32 43.4258C384.776 44.7365 397.098 61.8136 415.493 69.7822C433.819 77.7211 445.933 62.616 460.614 56.5019C485.112 46.3003 517.412 45.3433 541.663 57.1396C553.714 63.0011 569.06 72.5335 582.357 73.1767C592.496 73.6679 608.461 65.4294 618.696 62.2568C632.039 58.1209 641.305 54.8485 655.151 53.7744C677.556 52.0362 682.351 56.6255 700.725 64.54C722.718 73.9682 747.734 69.9668 768.526 60.498C799.066 46.591 822.501 46.3666 847.131 71.3359C849.953 74.1995 856.401 78.9761 860.279 80.3056C866.781 82.532 884.272 86.7476 890.66 83.914L891.099 83.7168C895.707 81.6611 901.365 77.63 905.621 74.5381C917.913 65.6096 935.956 58.9695 951.017 57.4394C966.722 55.8443 978.549 63.3594 991.399 66.081C1015.24 71.1326 1040.07 74.3156 1063.54 81.874C1075.5 85.7286 1081.98 91.5044 1095.02 93.8701C1106.96 90.2458 1119.8 83.192 1131.46 79.2265C1142.85 75.3501 1162.35 71.3897 1174.45 73.1142C1193.49 75.8305 1206.41 93.3825 1226.51 97.7031C1239.65 100.527 1246.34 97.4856 1259.16 97.6767C1268.8 98.1123 1277.74 101.652 1287.25 103.206C1292.27 104.026 1306.58 101.803 1308.08 106.935C1307.58 108.065 1306.44 109.051 1305.35 109.488C1287.82 116.48 1269.65 110.138 1252.92 109.558C1236.11 108.975 1225.71 115.227 1207.66 109.728C1186.66 103.335 1176.29 86.1738 1153.74 86.3994C1128.2 86.655 1103.96 107.159 1079.01 106.561C1074.17 106.444 1064.8 98.5478 1060.41 96.1806C1056.95 94.3194 1051.04 92.1442 1047.17 91.041C1026.95 85.2701 1005.45 83.0389 984.944 78.5019C977.081 76.7608 966.862 72.5413 959.238 70.2539C932.41 61.2196 917.521 79.0885 897.294 91.8047C881.264 101.885 848.506 97.8392 833.757 86.0439C821.233 76.0194 812.069 62.0391 794.006 61.3301C785.579 60.9993 778.334 66.5545 770.937 69.8183C750.616 79.8827 725.574 84.8206 703.029 81.5488C697.956 80.8113 689.961 78.2992 684.801 76.7724C682.855 74.8017 680.796 73.8437 678.445 72.4697C645.003 52.9639 613.005 79.3767 578.523 85.0176C572.607 85.8213 566.736 85.9667 560.778 86.207C548.094 84.3849 542.156 76.7022 531.231 70.8496C508.07 59.2197 493.404 57.0721 467.799 64.9082C455.872 68.5584 448.923 75.8638 437.525 79.9082C420.566 85.9772 407.222 84.9376 391.74 75.5205H391.741C382.909 68.8388 365.025 54.7661 353.873 54.2734C349.356 54.0745 334.566 67.5723 330.16 69.6924C298.947 84.7165 275.7 94.948 253 61.6103C245.69 50.8728 215.751 38.1326 203.547 42.6621C182.841 49.1067 169.067 62.6202 147.773 68.7597C121.342 77.6093 101.515 49.0823 77.1183 64.4316C72.5881 67.282 63.8449 72.6285 66.6486 78.1797C79.394 103.413 96.9676 119.094 81.8137 149.829C76.9414 159.711 65.8872 171.168 70.7394 183.521C80.1439 209.916 118.312 225.906 102.298 258.495C96.1999 272.692 75.8552 281.913 81.7394 299.325C87.6271 316.751 100.477 329.44 112.913 342.202C122.19 351.722 128.624 357.961 121.958 371.539C116.118 383.431 75.2549 403.535 73.5529 414.59C76.2909 421.362 93.0704 418.852 100.975 424.789C109.351 427.504 113.488 429.542 117.61 438.019C121.189 447.046 120.957 450.282 117.965 459.773C110.635 483.019 55.7075 503.214 65.9406 527.349C69.0377 534.652 77.493 544.518 82.3068 549.284C114.394 581.054 124.935 594.459 105.23 638.705C103.075 643.541 100.87 647.891 98.2004 652.787C94.2273 660.073 77.1827 679.55 80.9816 686.507C85.2203 694.266 96.9554 710.024 105.781 712.879C125.347 719.218 146.056 714.996 165.119 709.049C170.204 707.462 175.942 706.6 180.767 704.549L180.766 704.548C187.024 703.625 197.273 701.94 203.29 702.404C223.071 703.931 244.364 713.284 263.6 717.765C265.175 718.342 266.319 718.952 267.966 718.8C276.617 721.627 288.397 719.896 297.26 718.628L296.474 710.463C299.38 707.204 300.246 706.294 303.815 703.818L308.254 704.39C307.975 711.664 307.811 712.76 301.97 717.167C326.612 713.164 346.823 705.471 370.625 699.258C393.436 693.304 422.095 691.95 445.621 693.576C474.094 695.548 494.725 715.866 525.036 712.806C538.022 711.491 541.397 708.617 552.865 703.951C571.608 696.318 592.771 684.88 613.5 687.051C620.762 687.814 625.765 689.706 632.562 691.97C664.494 702.597 679.322 721.389 715.301 721.422C750.815 721.455 764.642 698.98 800.195 696.271C839.388 693.285 867.876 722.345 905.827 723.892C931.188 724.748 954.782 714.499 977.918 705.146C997.355 697.281 1017.54 692.116 1038.62 696.775C1047.8 698.807 1056.4 703.36 1066.06 703.294C1069.52 705.604 1075.57 709.952 1079.49 710.888C1100.66 715.932 1120.94 704.861 1140.33 698.395C1155.52 693.344 1173.71 688.306 1189.67 687.688C1194.55 687.503 1201.75 689.162 1206.32 690.23L1207.17 691.134C1212.47 692.734 1216.91 695.853 1221.68 698.728C1225.84 700.38 1227.39 701.13 1231.9 700.301C1259.07 698.356 1233.42 662.986 1229.8 652.301L1229.56 651.574C1236.98 626.815 1258.98 616.841 1264.81 594.118C1268.98 577.901 1250.85 549.165 1241.3 535.242C1237.25 539.224 1230.06 543.919 1228.05 535.228C1229.37 529.305 1233.4 530.518 1238.02 531.315C1228.38 516.424 1221.68 514.394 1231.41 496.851L1231.11 496.312C1229.29 495.831 1228.73 495.665 1227.05 494.832C1225.38 492.556 1224.82 489.548 1226.46 487.072C1231.56 479.325 1238.18 488.418 1243.47 484.004C1258.74 471.263 1251.85 451.504 1248.15 435.17C1244.13 422.045 1239.25 414.773 1240.02 400.489C1240.93 383.738 1271.78 346.035 1269.22 333.203C1264.59 310.099 1240.91 293.849 1251.84 267.416C1249.82 268.962 1244.84 271.411 1242.51 269.141C1234.25 261.108 1248.09 251.611 1254.5 258.232C1255.05 260.114 1254.73 260.715 1254.04 262.49L1253.82 263.05C1254.03 262.938 1254.29 262.819 1254.51 262.568C1258.77 257.817 1263.37 248.884 1266.39 244.389C1285.74 215.552 1269.53 208.634 1269.85 178.875C1270.2 145.778 1274.6 141.833 1298.13 119.686C1301.22 116.774 1304.32 114.844 1309.11 114.673C1310.63 114.619 1311.55 115.875 1312.42 116.864C1314.78 125.983 1292.09 136.844 1287.85 147.145C1284.59 151.908 1285.28 157.072 1283.96 162.088C1277.58 186.282 1291.45 205.379 1287.56 228.977C1284.63 246.837 1262.47 265.978 1261.96 282.075C1261.41 299.152 1284.24 321.313 1282.35 339.309C1279.79 357.076 1253.68 385.538 1253.97 404.051C1255.49 428.061 1268.14 448.138 1265.58 473.063C1264.19 486.63 1235.08 504.331 1240.69 514.819C1248.36 529.156 1259.89 544.126 1268.39 558.158C1282.36 581.256 1280.92 602.113 1263.68 622.662C1254.68 633.247 1246.5 639.885 1242.55 653.785C1252.55 672.315 1271.24 698.083 1238.95 709.52C1226.25 714.021 1208.15 717.207 1195.5 711.784C1190.14 709.494 1189.1 704.516 1187.4 699.318C1187.3 699.265 1187.19 699.218 1187.08 699.165C1169.57 696.052 1135.75 710.855 1120.16 717.28C1104.48 723.752 1065.57 731.544 1051.3 724.588C1038.49 718.342 1025.88 707.927 1007.96 708.358C999.739 708.558 985.867 714.625 977.586 717.293C966.908 720.97 955.254 726.135 944.655 729.613C908.032 741.641 873.813 736.111 840.324 718.601C816.272 706.029 792.718 703.341 768.513 716.941C762.105 720.546 752.575 724.223 745.649 727.402C724.345 736.178 687.902 735.926 666.459 727.556C657.75 724.157 642.669 713.124 631.605 709.208C624.005 706.513 614.514 701.355 605.566 700.539C588.46 698.979 566.198 710.668 549.86 717.034C522.027 727.874 505.679 730.357 476.847 719.67C465.871 715.601 458.192 711.292 446.475 708.724C433.034 705.77 421.639 706.991 408.096 706.898C374.969 706.686 345.895 718.96 314.423 727.064C302.035 730.217 289.435 732.474 276.723 733.821C242.799 737.472 228.826 719.677 196.171 716.53C189.33 715.873 182.311 717.705 175.527 718.794C145.593 723.613 121.794 738.501 91.7355 725.02C78.9245 719.278 69.4417 706.952 63.3986 694.765C58.2568 684.396 75.0664 662.938 81.0363 653.576C84.2045 648.601 87.0044 643.401 89.4142 638.019C93.1881 629.668 99.3861 612.698 98.2189 603.78C95.9897 586.756 79.7683 574.955 68.1008 564.708C61.3024 558.737 50.8888 543.541 47.8635 535.381C37.9874 508.742 82.1874 483.58 96.6799 467.954C100.76 463.555 102.294 461.023 104.762 455.609C98.0586 426.727 60.6533 437.714 52.9455 429.037C44.341 405.823 110.724 374.347 107.866 366.823C99.2817 344.219 50.0441 315.675 67.0041 282.946C72.9594 271.454 87.7247 262.173 89.3742 248.395C90.0885 222.382 55.7336 209.963 53.1857 184.918C50.6912 163.182 69.4314 153.88 71.0158 134.4C72.5511 115.524 61.3035 103.539 49.8986 90.7978C49.2518 85.3674 48.5771 81.9391 50.8029 76.7529C58.0561 59.8533 87.1837 45.6994 104.872 47.8428C118.009 49.4347 135.788 59.1734 149.632 56.7998C164.48 54.2537 178.512 41.2047 193.425 35.4931ZM151.438 669.574V669.573V669.574ZM137.441 119.42V119.421V119.42ZM136.816 115.971V115.972L136.603 116.317L138.366 118.709H138.365L136.603 116.317L136.816 115.971ZM140.824 116.23C140.903 116.262 140.981 116.294 141.058 116.328L141.506 116.539C141.287 116.431 141.061 116.326 140.824 116.23ZM156.274 107.106C157.07 107.16 157.866 107.209 158.662 107.254C157.866 107.209 157.07 107.16 156.274 107.106Z" fill="black"/>
<path d="M134.751 167.788C135.116 171.613 135.685 174.561 136.473 178.322C138.267 179.888 137.571 179.74 139.581 179.94L139.908 179.087C138.781 175.562 142.979 150.641 144.7 148.866C145.06 154.949 143.323 165.052 142.878 171.622C142.013 186.115 142.65 200.658 144.78 215.021C147.308 231.633 152.301 244.138 157.127 259.824C165.73 287.79 164.466 317.303 164.431 346.006C164.406 366.647 165.627 383.331 161.837 403.946C159.46 416.872 160.39 433.836 159.895 447.065C159.742 472.279 165.473 496.11 169.133 520.825C171.689 538.075 170.482 557.177 170.796 574.547C171.207 597.287 162.789 616.164 162.778 639.078C161.521 640.309 161.963 640.271 160.638 640.302C160.456 637.559 161.559 628.392 160.031 627.248L160.042 629.112C157.662 631.753 157.309 628.62 153.776 631.772C153.456 633.506 153.399 632.807 154.687 634.683L154.221 635.667L152.1 636.119C152.564 634.402 152.448 632.103 152.669 630.278C154.515 615.035 160.958 598.969 161.154 583.587C161.401 564.184 162.849 543.295 160.707 524.033C158.823 507.076 153.675 489.527 152.312 472.393C149.992 450.348 151.914 430.486 152.702 408.537C153.64 401.633 154.905 394.808 156.128 387.95C158.304 376.214 156.459 365.333 156.753 354.137C157.781 313.405 156.144 275.918 140.898 237.633C135.195 223.31 131.84 183.658 134.751 167.788Z" fill="#212022"/>
<path d="M156.128 387.95C159.982 392.887 158.427 398.769 156.629 404.297C155.772 406.934 155.076 407.039 152.702 408.537C153.639 401.633 154.904 394.808 156.128 387.95Z" fill="#1D1716"/>
<path d="M136.695 119.525C138.097 119.274 137.608 119.626 138.366 118.709L136.603 116.318L136.816 115.971C141.148 115.002 142.238 117.866 145.075 117.736C145.695 124.965 145.926 141.891 144.7 148.867C142.979 150.642 138.781 175.562 139.908 179.087L139.581 179.94C137.571 179.74 138.267 179.889 136.473 178.322C135.685 174.561 135.116 171.613 134.751 167.788C134.944 161.062 136.04 152.977 136.207 145.828C136.339 140.198 135.585 123.781 136.695 119.525Z" fill="#1D1716"/>
<path d="M377.28 77.7578C380.067 79.1318 381.834 80.2643 384.452 81.9622C384.807 87.783 384.1 88.8795 378.69 91.3236C378.158 91.388 377.625 91.4444 377.092 91.4935C374.061 91.7663 372.922 91.7431 370.558 89.779C367.765 83.9416 372.783 80.4249 377.28 77.7578Z" fill="black"/>
<path d="M154.455 695.933C152.346 699.55 150.575 702.79 145.88 701.94C139.919 697.074 144.904 684.98 153.674 688.359C155.51 691.399 155.8 692.428 154.455 695.933Z" fill="black"/>
<path d="M156.011 86.3977C161.153 89.8401 155.252 92.6532 162.946 92.2742C164.643 93.015 164.66 93.1763 165.714 94.7919C166.32 100.137 158.813 104.01 154.525 105.379C153.08 103.742 152.135 102.147 151.06 100.285C148.041 100.345 146.702 100.577 144.665 98.8065C143.816 94.0996 146.675 91.6436 150.542 90.2629C152.658 86.7004 152.212 87.2852 156.011 86.3977Z" fill="black"/>
<path d="M96.4098 73.6511C109.99 74.1848 101.314 86.883 91.9154 90.6374C88.105 90.6898 87.0617 90.81 85.4487 87.3072C85.4733 86.0805 85.5384 85.0676 86.0006 83.9285C87.9416 79.2402 91.6949 75.5336 96.4098 73.6511Z" fill="black"/>
<path d="M97.0911 488.432C109.679 489.135 103.072 502.02 94.4109 505.473C91.2121 505.233 90.0573 505.199 87.8473 502.944C85.725 496.597 92.3995 491.655 97.0911 488.432Z" fill="black"/>
<path d="M132.35 533.527C144.233 533.839 139.896 547.011 131.58 550.974C131.163 550.978 130.747 550.975 130.332 550.964C127.501 550.89 126.898 550.592 125.186 548.797C123.368 543.343 128.159 536.632 132.35 533.527Z" fill="black"/>
<path d="M117.054 250.738C128.618 254.834 119.727 265.6 113.273 269.709C110.985 269.376 110.649 269.349 108.949 267.814C105.627 261.227 111.177 253.818 117.054 250.738Z" fill="black"/>
<path d="M133.874 382.822C143.912 382.127 143.445 395.409 132.907 398.758C130.59 398.451 127.878 398.409 126.373 396.425C125.541 395.333 125.224 393.933 125.506 392.589C126.416 388.141 130.386 385.138 133.874 382.822Z" fill="black"/>
<path d="M209.723 67.1272C220.55 71.4796 212.454 80.3033 205.422 83.5439C201.265 81.7245 197.751 77.7869 200.17 73.0508C202.292 68.8955 205.565 68.3346 209.723 67.1272Z" fill="black"/>
<path d="M126.249 633.846C129.052 633.756 130.95 633.986 132.761 636.252C134.716 641.316 130.942 646.643 126.558 648.98C126.16 649.007 125.763 649.027 125.366 649.038C122.827 649.104 121.289 648.906 119.459 647.125C116.648 642.052 122.463 636.509 126.249 633.846Z" fill="black"/>
<path d="M123.548 156.461C124.2 156.884 125.671 158.931 125.989 159.712C128.411 165.642 119.093 169.504 115.866 170.82C106.961 165.247 113.666 156.857 123.548 156.461Z" fill="black"/>
<path d="M262.028 81.6204L262.353 81.6389C272.323 82.1501 271.475 90.3173 264.098 94.9014C262.908 94.989 261.868 94.8602 260.684 94.7633C254.617 90.9001 256.493 84.8975 262.028 81.6204Z" fill="black"/>
<path d="M132.433 269.838C142.167 272.567 138.463 281.715 134.445 287.806C131.458 287.456 131.338 287.426 129.487 285.717C127.16 279.012 131.661 275.06 132.351 270.419L132.433 269.838Z" fill="black"/>
<path d="M97.7308 120.574C100.002 120.495 100.666 121.244 102.055 122.514C104.316 127.662 101.383 132.871 96.6238 135.179C94.8122 135.066 94.4656 134.919 92.7105 134.37C88.746 129.842 94.1608 123.689 97.7308 120.574Z" fill="black"/>
<path d="M123.427 83.3834C126.492 83.2699 128.953 86.1129 128.639 89.1464C128.198 93.4072 126.597 94.7653 123.481 97.2897C115.61 93.5971 116.832 86.6844 123.427 83.3834Z" fill="black"/>
<path d="M117.105 199.623C126.083 200.964 118.863 211.005 118.202 214.087C108.672 213.376 111.978 204.071 117.105 199.623Z" fill="#1D1716"/>
<path d="M329.369 74.5889C331.044 74.7376 332.696 75.0887 334.288 75.635C339.783 77.4836 339.657 79.9483 337.893 84.4063C334.751 86.3492 332.636 87.3176 329.979 84.624C328.761 81.6496 329.231 77.8713 329.369 74.5889Z" fill="black"/>
<path d="M116.339 683.261C116.935 683.52 118.026 684.21 118.633 684.569C122.079 690.39 117.348 693.862 112.743 696.889C110.196 696.019 109.927 695.68 109 693.344C109.447 689.64 113.677 685.996 116.339 683.261Z" fill="black"/>
<path d="M141.229 305.316C142.186 305.38 142.801 305.944 143.618 306.495C144.814 309.928 140.311 317.187 138.037 319.771C136.915 319.027 135.461 318.078 134.886 316.856C134.058 315.059 134.018 312.997 134.777 311.169C136.252 307.61 137.881 306.726 141.229 305.316Z" fill="black"/>
<path d="M102.351 410.2C105.451 410.184 105.383 410.393 107.447 412.042C109.519 417.146 106.815 418.228 103.007 420.231C100.954 420.414 100.195 419.952 98.7098 418.591C96.3371 414.315 99.1421 412.085 102.351 410.2Z" fill="#1D1716"/>
<path d="M133.226 475.598L135.346 476.354C138.545 481.042 135.648 485.4 131.331 487.925C129.93 487.23 129.564 486.761 128.412 485.671C126.757 480.642 129.483 478.559 133.226 475.598Z" fill="black"/>
<path d="M100.975 424.79C109.351 427.504 113.488 429.542 117.609 438.018C115.403 438.358 114.815 439.298 112.59 439.157C111.587 437.388 110.204 434.444 108.862 433.117C106.579 430.86 101.487 428.01 100.975 424.79Z" fill="#1D1716"/>
<path d="M1207.17 691.134C1212.47 692.733 1216.91 695.853 1221.68 698.727C1220.93 700.612 1221.32 700.513 1219.93 701.402C1216.82 700.188 1214.68 697.154 1213.84 696.763C1212.25 696.032 1208.75 696.709 1206.36 694.459C1205.92 692.481 1205.88 693.291 1207.17 691.134Z" fill="#1D1716"/>
<path d="M136.695 119.525C135.133 115.937 134.422 109.437 137.547 106.512C138.959 105.882 141.083 105.537 142.643 105.746C191.002 112.248 240.559 100.085 289.15 98.6711C297.402 98.4308 305.635 97.6515 313.875 97.3966C336.113 96.709 358.455 97.8155 380.655 99.1782C393.78 101.326 407.138 102.761 420.372 104.119C425.236 104.618 436.405 106.121 440.902 106.042C447.464 107.081 471.767 110.515 477.678 110.146C498.937 112.475 519.782 115.095 541.153 116.259C545.25 116.842 547.949 116.873 552.035 116.936C556.723 117.395 559.25 117.46 563.953 117.354C578.025 117.71 613.735 118.421 627.098 117.064L631.373 116.966C632.963 116.948 636.574 116.99 637.942 116.725C665.769 117.765 693.64 116.52 721.351 117.403C768.447 118.903 815.681 122.477 862.464 127.804C863.872 127.964 865.413 128 866.655 127.337L866.296 126.663C864.855 123.889 864.457 122.759 865.526 119.633C866.416 116.988 868.328 114.811 870.838 113.59C874.477 111.841 878.342 112.396 880.713 115.833C881.822 122.765 871.761 126.366 866.376 127.743C889.89 130.755 912.382 131.297 936.328 135.402C968.077 140.844 993.584 149.495 1026.14 150.616C1046.66 151.348 1067.2 150.742 1087.64 148.8C1117.72 145.732 1195.01 128.839 1219.7 143.508C1221.84 143.522 1222.13 143.532 1223.8 142.243L1224.19 140.806C1222.29 137.797 1219 137.921 1220.23 133.466C1223.32 122.415 1236.88 123.687 1232 135.98C1231.13 138.166 1227.25 139.212 1227.49 140.346C1238.35 141.302 1237.56 142.862 1240.4 152.944C1246.73 175.346 1241.7 201.134 1237.61 223.525C1236.53 229.195 1234.13 245.163 1234.43 250.59C1234.11 252.79 1233.69 255.119 1233.82 257.323C1232.79 267.049 1233.82 288.262 1236.97 297.245C1240.66 296.975 1246.22 295.931 1248.92 298.098C1250.79 311.765 1237.74 302.516 1238.58 310.532C1238.71 311.622 1238.86 312.709 1239.01 313.795C1239.43 316.709 1240.4 322.314 1240.51 325.051C1240.61 351.775 1234.96 376.246 1229.68 402.268C1227.28 414.103 1225.48 426.064 1223.22 437.927C1221.54 446.73 1219.43 455.581 1218.38 464.481C1217.41 472.727 1216.68 481.219 1216.48 489.519C1215.95 512.119 1217.67 647.435 1208.27 657.521C1207.5 658.342 1205.47 658.546 1204.37 658.524C1201.53 658.465 1199.24 657.022 1196.36 656.969L1112.69 655.802C1075.34 655.82 1037.98 656.19 1000.64 656.914C979.373 657.116 957.89 656.345 936.474 656.524C900.681 656.823 864.882 657.129 829.089 656.503L617.912 653.176C607.878 652.943 597.559 652.159 587.632 652.009C550.367 651.526 513.097 651.837 475.846 652.941C462.812 653.2 448.152 651.524 435.387 652.865C401.272 656.449 367.248 663.344 333.203 667.802C330.206 668.193 326.613 668.605 323.705 669.123C318.682 669.454 313.611 670.238 308.617 670.921C289.048 672.375 267.692 675.428 247.711 677.207C223.868 677.586 195.025 678.449 171.774 677.373C170.334 677.4 166.21 676.411 164.57 676.059C158.898 674.878 156.197 672.734 151.438 669.574C151.33 663.513 150.351 639.88 152.1 636.119L154.221 635.667L154.687 634.683C153.399 632.808 153.456 633.506 153.776 631.772C157.308 628.62 157.662 631.753 160.042 629.112L160.03 627.248C161.558 628.392 160.455 637.56 160.638 640.302C161.963 640.271 161.521 640.309 162.778 639.078C163.457 646.359 163.741 654.208 164.361 661.666C185.701 670.151 230.768 667.808 254.991 667.403C261.18 667.297 278.246 664.655 285.627 663.859C308.899 661.353 333.387 658.923 356.52 655.372L396.093 649.153C403.132 648.032 414.542 645.962 421.382 645.686C438.449 644.996 456.118 645.555 473.023 645.323C546.173 644.387 619.335 645.158 692.451 647.634C695.951 647.721 699.855 645.978 702.983 646.227C729.293 648.325 755.65 647.465 782.073 647.511C804.625 647.55 827.502 649.916 849.827 649.972L1069.66 649.757C1096.91 649.446 1124.17 649.313 1151.44 649.358C1162.39 649.325 1189.34 648.388 1198.91 650.768C1199.46 647.907 1200.12 644.648 1200.44 641.773C1205.19 598.597 1204.69 556.138 1205.44 512.922C1201.46 452.318 1223.57 395.993 1227.96 336.431C1228.6 327.711 1226.07 312.869 1225.01 303.762C1224.19 302.213 1222.75 291.674 1222.44 289.507C1221.03 282.833 1221.23 276.29 1221.12 269.51C1220.59 233.462 1233.5 198.135 1228.61 162.149C1227.95 159.925 1227.05 157.476 1226.3 155.257C1216.62 154.25 1206.23 152.884 1196.66 151.019C1190.13 149.747 1184.22 145.717 1176.81 145.553C1155.42 145.08 1135.9 148.976 1114.89 151.99C1080.29 156.955 1045.41 160.143 1010.43 157.702C985.927 155.991 960.454 147.427 936.687 143.542C912.043 139.514 883.223 136.6 858.314 134.417C808.244 130.03 755.783 125.076 705.527 124.36C651.862 123.596 597.837 125.89 544.112 123.866C526.795 123.213 509.29 120.946 492.08 119.245L405.807 110.489C401.839 110.072 397.849 109.669 393.901 109.14C362.789 104.968 330.782 104.006 299.424 105.983C265.266 108.137 230.904 111.488 196.928 115.806C180.467 117.898 161.84 115.897 145.075 117.736C142.238 117.866 141.148 115.002 136.816 115.971L136.603 116.318L138.366 118.709C137.608 119.626 138.097 119.274 136.695 119.525Z" fill="black"/>
<path d="M1225.01 303.761C1236.28 315.455 1225.79 379.895 1222.04 395.67C1216.89 417.352 1213.55 439.66 1209.65 461.689C1208.43 468.547 1207.11 510.547 1205.44 512.922C1201.45 452.318 1223.57 395.993 1227.96 336.43C1228.6 327.711 1226.07 312.869 1225.01 303.761Z" fill="#1D1716"/>
<path d="M1228.61 162.149L1230.49 159.423L1230.93 159.77C1232.49 174.217 1233.18 177.265 1232.07 193.512C1231.63 206.058 1227.23 219.142 1226.22 231.454C1224.93 247.131 1222.54 263.808 1223.28 279.389C1223.38 281.311 1225.51 282.946 1223.37 285.21C1222.49 286.147 1222.49 288.226 1222.44 289.507C1221.03 282.833 1221.23 276.289 1221.12 269.509C1220.59 233.462 1233.5 198.135 1228.61 162.149Z" fill="#1D1716"/>
<path d="M328.882 672.999C337.63 672.919 347.613 670.961 355.977 670.775C362.193 670.643 366.627 674.931 376.023 671.964L376.72 671.034L376.07 669.282C377.363 668.558 377.562 668.638 379.005 668.698L379.335 667.125C381.33 666.866 381.733 666.746 383.612 667.41C383.446 667.788 378.687 671.811 376.872 674.141C372.341 675.05 364.828 674.731 360.579 672.833C359.722 672.448 359.332 672.461 358.396 672.408L358.395 672.986C361.846 676.026 363.198 672.813 368.892 676.716C378.473 676.139 380.049 673.543 388.461 668.12C389.099 666.819 389.086 666.899 388.969 665.452C393.958 664.834 427.733 658.979 429.221 659.263C431.972 661.84 428.839 664.31 430.712 667.536C432.643 667.875 431.885 667.987 433.692 667.31C434.003 664.941 432.794 664.761 431.908 662.048C437.309 662.967 435.526 658.951 440 661.944C441.931 661.849 442.295 661.897 443.721 660.64C441.781 658.486 434.479 661.369 431.167 660.923L430.933 660.094C434.365 657.651 448.712 657.702 452.785 661.547L450.894 662.524C449.209 661.499 449.06 661.107 447.85 659.479C447.185 662.205 447.721 661.643 445.895 663.389C444.086 663.602 443.485 663.664 441.676 663.515C439.715 667.237 435.311 670.908 432.432 674.187L433.702 676.364L433.247 676.856C431.065 674.453 431.524 674.141 428.963 673.716C426.995 674.426 426.578 675.256 425.253 676.889L423.682 677.068L423.02 676.491C423.062 673.842 423.488 669.979 422.146 667.941C416.568 667.762 418.051 670.802 412.828 667.582L411.418 667.815C409.104 674.439 414.085 672.687 406.745 680.865L407.155 681.635C413.737 682.538 420.011 679.63 423.231 686.905L422.747 687.516C421.752 686.527 421.601 686.242 420.883 685.106L419.813 685.126L420.886 686.819L420.129 687.39L418.444 687.131L418.085 688.777C415.098 689.215 400.088 689.541 397.453 688.883C395.534 685.903 395.648 686.022 396.771 682.504C396.128 680.221 396.504 681.051 394.371 679.139C391.447 678.489 389.767 678.316 386.764 678.064L386.673 677.619C396.982 673.703 397.049 679.79 405.561 674.035L404.936 673.059C398.459 672.846 383.507 677.254 377.226 678.933C372.541 680.181 371.77 686.182 365.204 682.206C363.969 681.456 356.796 678.469 356.159 679C363.629 686.54 368.818 678.721 368.62 689.348C368.589 690.954 368.813 692.879 367.661 693.809C361.889 698.482 350.785 700.659 343.891 701.628L345.534 700.878C336.138 702.272 325.254 704.509 315.894 704.781C314.783 704.814 308.934 703.746 308.254 704.389L303.815 703.819L306.759 703.254L306.666 702.571C291.875 699.106 293.907 713.702 290.461 717.194L290.091 717.101C284.632 715.733 275.418 717.619 269.681 717.068C268.488 716.948 262.129 714.213 259.923 713.483C260.471 710.211 262.079 708.16 264.232 705.817C266.879 705.372 269.344 704.735 271.947 704.097L272.128 703.679C269.23 703.613 267.716 703.699 264.934 702.836C264.594 701.821 263.949 696.723 263.406 694.545C260.863 692.501 259.73 694.691 255.539 693.371C255.22 692.216 255.274 691.977 255.261 690.808C257.154 690.184 257.989 690.091 259.359 688.644C255.548 687.649 253.352 691.904 249.35 689.394L249.1 689.985L250.219 692.481L249.549 693.417C247.786 693.47 247.883 693.477 246.323 692.634C246.033 689.242 247.871 690.018 247.915 687.41C242.46 689.361 246.843 691.127 244.115 693.862C242.578 693.908 242.534 693.835 241.222 692.926C239.943 691.061 239.891 690.802 239.863 688.532C241.652 687.602 242.518 687.244 244.022 685.817L243.707 685.259C240.658 686.388 240.764 685.843 238.959 688.04L237.756 688.113L237.484 687.171C245.774 680.181 248.813 686.062 255.546 683.832C266.814 680.101 277.981 678.94 289.963 678.157C295.454 677.798 296.848 676.398 301.239 676.026L302.129 676.119L299.586 679.126L299.896 679.955L300.372 680.062L304.844 679.524L304.141 678.216L304.575 677.679C306.52 679.663 308.029 678.794 310.383 678.256C312.23 678.96 312.554 679.385 313.882 680.759L314.273 681.177C317.495 681.854 321.254 681.768 323.66 679.358C327.227 675.787 326.739 676.165 331.323 677.287C330.607 675.422 329.979 674.605 328.882 672.999Z" fill="#B0B0AF" fill-opacity="0.0627451"/>
<path d="M252.016 696.908C260.372 697.552 255.712 707.051 249.422 709.567C242.157 706.825 244.594 699.265 252.016 696.908Z" fill="black"/>
<path d="M534.99 94.9266C543.198 94.4494 544.009 104.793 536.151 108.42C524.411 108.455 526.32 99.5406 534.99 94.9266Z" fill="black"/>
<path d="M531.231 70.8499C542.157 76.7025 548.094 84.3851 560.778 86.2072L566.007 87.6337L565.959 88.2948C552.404 97.4643 555.324 91.9131 552.259 109.599C551.585 113.489 551.267 112.435 552.035 116.936C547.949 116.873 545.25 116.842 541.153 116.259C544.235 116.272 546.231 116.339 549.264 115.833C545.013 113.037 547.253 106.753 546.29 102.13C545.849 100.013 545.099 97.7133 544.418 95.6728C536.559 89.6376 535.66 92.5225 526.211 89.7259C525.234 90.0983 524.25 90.4501 523.258 90.78C518.325 92.4043 511.295 93.617 506.455 91.1557C504.867 90.3652 503.239 89.6576 501.577 89.0363L501.131 85.6556C507.071 87.406 522.787 78.8398 528.051 75.1771C529.126 74.4296 530.547 72.0553 531.231 70.8499Z" fill="#C8C8C8" fill-opacity="0.290196"/>
<path d="M560.777 86.2071C566.736 85.9668 572.608 85.8214 578.523 85.0176C577.247 87.5473 575.493 90.4268 575.423 93.1861C575.955 94.2017 575.867 94.2568 576.644 95.0414C579.266 104.478 581.319 103.655 590.129 101.289C589.294 105.158 561.72 110.207 558.575 115.381L559.08 116.37C560.979 116.94 562.016 117.075 563.953 117.354C559.249 117.459 556.723 117.394 552.034 116.936C551.267 112.435 551.585 113.489 552.259 109.599C555.324 91.913 552.404 97.4642 565.958 88.2947L566.007 87.6336L560.777 86.2071Z" fill="#D9D9D9" fill-opacity="0.454902"/>
<path d="M461.437 90.1494L462.064 90.4421C469.471 93.9602 467.89 98.5344 480.396 93.6681C482.707 92.7694 483.053 92.7561 485.227 91.1245C485.766 92.1109 486.791 93.8274 487.113 94.8158C480.368 104.151 490.998 105.926 477.678 110.146C471.768 110.515 447.464 107.081 440.902 106.042L441.253 105.118C445.302 102.708 447.114 99.3017 449.303 95.3276C455.807 101.291 459.623 97.1855 461.437 90.1494Z" fill="#C8C8C8" fill-opacity="0.294118"/>
<path d="M164.57 676.059C166.209 676.411 170.334 677.4 171.774 677.373L170.696 678.143C173.788 681.728 173.3 683.029 172.865 688.313C172.789 689.169 172.681 690.032 172.541 690.881L173.278 692.209C170.578 696.125 170.366 695.973 171.036 700.593C165.377 700.188 159.113 699.258 154.455 695.933C155.799 692.428 155.51 691.399 153.674 688.359C157.045 689.667 164.052 687.065 166.399 684.728C166.482 681.834 163.766 683.294 162.536 679.431L164.57 676.059Z" fill="#D9D9D9" fill-opacity="0.741176"/>
<path d="M173.278 692.209C187.237 677.964 196.842 695.747 179.78 703.361C176.166 702.504 174.369 702.146 171.037 700.593C170.366 695.973 170.579 696.125 173.278 692.209Z" fill="black"/>
<path d="M689.376 87.6436C690.114 87.8367 690.844 88.0438 691.575 88.2629C703.322 91.8393 696.05 100.658 688.208 104.125C683.234 104.097 679.13 102.047 680.73 96.2509C682.072 91.3926 685.193 89.8261 689.376 87.6436Z" fill="black"/>
<path d="M1030.02 107.684C1034.03 107.344 1042.33 105.833 1040.36 114.01C1039.56 117.363 1035.75 119.807 1032.7 121.217C1029.16 122.344 1026.33 122.79 1023.51 120.018C1020.4 114.183 1025.35 110.094 1030.02 107.684Z" fill="black"/>
<path d="M968.655 683.069C974.146 683.912 979.06 685.365 975.806 693.351C974.731 695.993 971.942 697.864 969.153 698.701C956.024 699.112 957.857 685.286 968.655 683.069Z" fill="black"/>
<path d="M1252.83 195.879C1255.22 195.67 1259.28 194.867 1260.76 197.208C1263.96 202.269 1258.99 208.749 1255.04 211.732C1241.64 213.678 1245.02 201.581 1252.83 195.879Z" fill="black"/>
<path d="M1080.79 124.273C1082.15 124.118 1086.38 123.567 1087.55 123.916C1096.47 126.587 1090.89 134.064 1086.46 136.918C1073.03 140.932 1070.53 130.87 1080.79 124.273Z" fill="black"/>
<path d="M1085.65 684.502C1097.1 682.956 1101.31 690.264 1091.56 698.117C1079.91 700.347 1077.4 691.074 1085.65 684.502Z" fill="black"/>
<path d="M827.183 671.744C827.787 671.718 828.392 671.705 828.996 671.718C839.448 671.97 838.97 680.347 831.699 686.135C819.334 687.37 818.304 678.243 827.183 671.744Z" fill="black"/>
<path d="M772.457 662.493C773.055 662.485 773.653 662.484 774.25 662.49C777.637 662.52 778.095 662.612 780.26 664.814C781.92 670.43 776.329 674.751 771.693 676.53C768.174 676.67 766.706 677.035 764.024 674.698C761.826 668.724 767.948 664.954 772.457 662.493Z" fill="black"/>
<path d="M928.638 99.7166C931.334 100.08 932.642 100.469 934.03 102.881C935.219 108.777 929.262 113.327 924.342 115.12C922.874 115.019 922.303 114.859 920.869 114.502C913.703 108.567 921.685 101.109 928.638 99.7166Z" fill="black"/>
<path d="M877.153 667.855C877.983 667.848 878.82 667.855 879.65 667.875C882.765 667.954 883.09 668.213 885.002 670.244C886.935 675.747 881.702 679.956 877.339 682.106C873.86 682.578 872.638 682.584 870.194 680.049C868.188 674.287 872.372 670.158 877.153 667.855Z" fill="black"/>
<path d="M976.292 116.004C988.51 117.508 986.996 125.718 977.64 130.523C974.784 130.981 973.011 131.201 970.627 129.523C967.207 123.769 971.935 119.264 976.292 116.004Z" fill="black"/>
<path d="M485.227 91.1245C489.593 84.5762 493.351 83.5069 501.131 85.6555L501.577 89.0362C500.037 97.0401 492.634 104.054 487.113 94.8158C486.791 93.8274 485.766 92.1109 485.227 91.1245Z" fill="black"/>
<path d="M451.558 667.171C454.914 666.633 455.486 666.58 457.302 669.196C458.048 674.798 452.675 679.942 447.804 681.861C444.875 681.967 443.531 682.319 441.469 680.115C440.855 677.924 441.924 675.356 442.592 673.099C445.618 669.893 447.579 668.97 451.558 667.171Z" fill="black"/>
<path d="M1046.74 668.472C1051.67 668.147 1055.2 667.125 1057.47 672.216C1057.42 675.9 1055.46 678.104 1053.15 680.805C1041.59 684.204 1039.54 675.601 1046.74 668.472Z" fill="black"/>
<path d="M497.108 661.928C497.829 661.859 498.551 661.803 499.273 661.758C502.327 661.579 502.795 661.95 504.809 663.758C506.863 669.215 501.027 673.072 496.909 675.057C493.524 675.136 492.807 675.216 490.389 673.424C487.86 667.642 492.551 664.357 497.108 661.928Z" fill="black"/>
<path d="M1138.22 110.788C1140.53 110.776 1143.64 111.021 1145.22 112.859C1147.66 118.274 1142.73 122.001 1138.37 124.029C1135.77 124.717 1133.88 125.405 1131.52 123.699C1129.04 118.263 1133.94 113.525 1138.22 110.788Z" fill="black"/>
<path d="M1261.47 122.211C1264.51 122.219 1264.41 121.761 1266.69 123.106C1268.8 128.074 1264.4 134.895 1260.22 137.329L1259.84 137.359C1257.02 137.54 1256.07 137.62 1254.02 135.808C1251.41 129.572 1256.74 125.236 1261.47 122.211Z" fill="black"/>
<path d="M596.769 663.799C599.28 663.437 599.497 663.722 600.704 665.717C601.169 671.22 597.503 676.65 592.163 678.243C589.361 678.09 588.037 677.752 586.066 675.794C584.219 669.288 591.896 665.77 596.769 663.799Z" fill="black"/>
<path d="M300.372 680.062C305.58 674.492 320.74 671.983 328.11 672.952L328.882 672.999C329.979 674.605 330.607 675.422 331.323 677.287C326.739 676.165 327.227 675.787 323.66 679.358C321.254 681.768 317.496 681.854 314.273 681.177L313.882 680.759C312.554 679.384 312.23 678.96 310.383 678.256C308.029 678.794 306.521 679.663 304.575 677.679L304.141 678.216L304.845 679.524L300.372 680.062Z" fill="#C5C5C4" fill-opacity="0.207843"/>
<path d="M1148.95 669.149C1152.21 668.91 1152.87 669.196 1155.04 671.359C1156.89 676.703 1152.31 680.891 1147.86 682.876C1137.51 682.863 1140.16 672.242 1148.95 669.149Z" fill="black"/>
<path d="M1217.86 688.346C1216.38 685.551 1214.75 682.73 1215.78 679.444C1216.25 677.931 1217.35 676.69 1218.79 676.033C1222.37 674.373 1226.6 675.455 1228.54 679.006C1229.48 683.527 1224.78 688.279 1220.57 689.043C1220.33 689.083 1220.09 689.122 1219.85 689.149L1217.86 688.346Z" fill="black"/>
<path d="M576.644 95.0414C584.364 86.3299 591.46 89.062 590.129 101.289C581.319 103.655 579.266 104.478 576.644 95.0414Z" fill="black"/>
<path d="M290.461 717.194C293.907 713.702 291.875 699.106 306.666 702.571L306.759 703.254L303.815 703.818C300.247 706.294 299.38 707.204 296.474 710.463L297.26 718.628C288.397 719.895 276.617 721.628 267.966 718.8C276.178 718.442 281.788 717.267 290.461 717.194Z" fill="#616060" fill-opacity="0.0156863"/>
<path d="M1234.41 606.753C1243.48 608.109 1240.76 617.572 1233.26 619.218C1223.85 620.17 1222.96 608.948 1234.41 606.753Z" fill="black"/>
<path d="M638.201 99.0694C626.159 89.098 646.328 82.0512 649.109 91.0024C645.106 100.455 645.648 96.7474 638.201 99.0694Z" fill="black"/>
<path d="M910.503 680.301C915.012 680.115 917.442 679.431 919.089 684.151C918.877 687.762 916.878 690.118 914.461 692.634C902.972 693.829 903.43 685.843 910.503 680.301Z" fill="black"/>
<path d="M1229.43 568.875C1239.88 567.605 1242.61 575.259 1234.96 580.438C1231.68 580.835 1228.69 581.742 1226.68 578.609C1224.03 574.492 1226.01 571.255 1229.43 568.875Z" fill="black"/>
<path d="M528.134 675.037C530.197 675.329 530.635 675.468 532.573 676.238C536.071 681.024 531.534 686.68 527.532 689.541L524.576 689.607C522.478 688.618 521.496 685.797 520.422 683.613C522.822 679.093 523.801 677.752 528.134 675.037Z" fill="black" fill-opacity="0.976471"/>
<path d="M1251.18 328.578C1260.96 329.873 1261.25 335.619 1254.52 341.354C1245.2 343.6 1242.47 334.049 1251.18 328.578Z" fill="black"/>
<path d="M1246.32 220.458C1250.85 221.777 1255.3 222.843 1255.91 228.247C1254.22 231.366 1251.72 230.919 1248.66 230.712C1248.89 230.738 1245.58 231.098 1245.21 231.117C1243.04 229.844 1242.53 229.333 1240.72 227.641C1239.23 223.153 1242.83 221.919 1246.32 220.458Z" fill="#C8C8C8" fill-opacity="0.0666667"/>
<path d="M1262.09 229.853C1264 230.099 1266.59 230.955 1268.49 231.507C1268.09 233.022 1267.66 234.529 1267.19 236.028C1265.92 240.104 1265.16 241.741 1261.36 243.709C1260.24 243.494 1258.94 243.063 1257.82 242.73C1253.7 238.119 1256.33 231.236 1262.09 229.853Z" fill="black"/>
<path d="M448.563 90.3949C451.767 83.5353 457.873 84.0305 461.437 90.1493C459.623 97.1854 455.806 101.291 449.303 95.3275C449.025 94.4009 448.712 91.5068 448.563 90.3949Z" fill="black"/>
<path d="M718.589 678.349C728.238 677.679 725.774 686.905 720.541 691.001L716.783 690.968C709.983 687.582 712.625 681.243 718.589 678.349Z" fill="black"/>
<path d="M1231.84 436.636C1240.57 437.376 1245.71 440.233 1237.47 447.927C1235.26 448.345 1233.83 448.811 1231.66 448.124C1229.75 446.782 1229.54 446.591 1228.75 444.413C1228.68 441.21 1229.63 438.963 1231.84 436.636Z" fill="black"/>
<path d="M799.046 98.2727C808.051 99.5578 806.424 107.919 799.983 112.424C792.061 111.39 792.28 102.296 799.046 98.2727Z" fill="black"/>
<path d="M661.979 671.12C670.823 673.344 668.538 680.161 663.032 684.615C660.886 684.662 659.855 684.887 657.95 683.911C654.106 679.444 658.396 674.107 661.979 671.12Z" fill="black"/>
<path d="M1173.5 106.346C1175.42 106.666 1174.7 106.366 1176.2 107.685C1177.68 113.092 1172.04 117.329 1167.55 118.918L1165.06 118.133C1162.99 115.529 1163.87 113.057 1165.68 110.595C1168.48 106.76 1169.13 107.034 1173.5 106.346Z" fill="black"/>
<path d="M745.477 101.15C754.388 102.666 752.748 111.245 744.54 114.099C741.877 112.778 740.038 111.426 739.706 108.185C740.363 105.833 740.888 105.39 742.449 103.623C744.66 103.547 744.507 102.865 745.477 101.15Z" fill="black"/>
<path d="M382.776 683.128L385.528 683.155C388.445 685.644 386.543 689.388 384.909 692.136C383.484 694.539 381.833 694.459 379.364 695.03C378.91 695.329 378.216 695.408 377.652 695.535C377.073 695.216 376.425 695.05 376.229 694.512C373.983 688.293 378.341 685.233 382.776 683.128Z" fill="black"/>
<path d="M1229.01 452.325C1237.12 457.338 1240.75 459.939 1229.45 464.493L1228.14 465.068C1220.63 463.055 1225.97 455.618 1229.01 452.325Z" fill="#D9D9D9" fill-opacity="0.145098"/>
<path d="M1192.6 666.932C1196.86 667.098 1199.73 666.706 1201.17 671.286C1200.8 674.134 1200.51 674.486 1198.86 676.836C1191.02 679.935 1189.52 672.01 1192.6 666.932Z" fill="black"/>
<path d="M308.617 670.921C313.612 670.238 318.682 669.454 323.705 669.123C329.02 670.882 325.802 669.62 328.11 672.953C320.74 671.983 305.58 674.493 300.372 680.062L299.896 679.956L299.586 679.126L302.129 676.119C305.219 674.811 308.727 673.477 312.125 673.424L309.683 672.05L311.943 671.506L308.617 670.921Z" fill="#616060" fill-opacity="0.0627451"/>
<path d="M259.923 713.483C262.129 714.213 268.488 716.948 269.681 717.068C275.418 717.619 284.632 715.733 290.091 717.101L290.461 717.194C281.788 717.267 276.178 718.442 267.966 718.8C266.319 718.953 265.175 718.342 263.6 717.765L263.708 717.519C263.242 715.979 261.337 714.744 259.923 713.483Z" fill="#736E6E" fill-opacity="0.160784"/>
<path d="M1233.82 257.323C1233.69 255.119 1234.11 252.789 1234.43 250.59C1234.6 252.841 1234.28 254.195 1235.53 256.041C1236.97 258.173 1239.13 259.63 1239.27 262.087L1237.65 263.467C1234.57 262.828 1234.45 260.118 1233.82 257.323Z" fill="#616060" fill-opacity="0.0196078"/>
</svg>
