<svg width="1360" height="579" viewBox="0 0 1360 579" fill="none" xmlns="http://www.w3.org/2000/svg">
<g clip-path="url(#clip0_297_8814)">
<path d="M144.216 401.831C167.524 400.551 204.758 414.095 222.881 428.642C238.213 440.949 247.078 451.185 249.868 471.005C273.495 452.12 294.3 445.719 324.307 453.31C352.525 460.448 367.788 476.266 382.438 500.433C409.411 504.351 436.121 507.614 462.14 516.251C468.06 518.217 477.186 514.539 480.341 521.114C480.166 523.781 480.551 522.789 478.919 524.868C469.324 529.669 447.605 521.823 437.54 519.777C420.58 516.33 402.644 511.839 385.343 510.96C386.402 515.998 389.758 525.388 384.959 528.61C376.026 529.638 376.66 516.96 374.634 509.92C369.842 509.657 360.473 509.514 359.298 503.817C360.223 501.622 360.355 501.349 362.238 499.908C364.466 499.911 366.222 500.325 367.717 498.737C368.199 495.487 364.919 492.732 363.126 490.331C341.158 460.904 294.849 451.242 264.28 472.801C258.645 476.775 249.134 489.188 241.607 485.849C236.728 481.92 238.956 468.593 236.621 463.256C219.832 424.879 158.565 404.003 120.04 417.349C103.185 423.189 80.6439 432.934 70.3077 448.462C63.2758 459.026 79.6206 459.112 81.8179 464.901C81.8345 467.057 81.8359 467.345 80.7163 469.172C75.514 473.203 67.2783 468.673 63.0501 465.192C49.0421 453.776 62.2817 438.165 72.784 430.132C93.8056 414.054 117.808 403.796 144.216 401.831Z" fill="black"/>
<path d="M905.273 392.445C906.468 392.305 907.67 392.217 908.872 392.182C921.542 391.896 937.227 397.609 946.644 406.05C951.697 410.58 961.585 429.443 955.648 435.264C954.593 435.434 953.052 435.921 952.468 435.09C945.156 424.606 947.434 413.978 934.146 407.212C917.359 398.662 893.486 395.984 888.107 419.338C887.668 420.523 886.46 430.214 887.084 430.977C891.128 435.922 888.771 442.621 881.24 443.585C878.279 441.994 879.812 441.619 877.302 438.386C867.468 434.448 845.454 436.49 835.32 440.019C827.75 442.655 818.626 450.027 810.949 449.995C808.652 448.914 809.223 448.953 807.768 446.274C804.255 443.821 792.475 442.285 787.973 441.685C772.819 439.665 754.69 451.247 742.126 438.154C740.618 436.586 739.131 434.848 737.677 433.224C726.188 429.343 709.839 426.531 697.866 423.318C673.123 416.679 632.3 424.506 611.301 438.242C618.458 439.34 626.43 441.224 632.509 445.226C634.73 447.531 635.289 450.304 634.007 453.25C629.607 456.099 603.387 444.165 589.13 447.441C571.353 438.403 546.054 448.205 535.383 444.448C533.967 442.897 533.319 442.411 533.072 440.315C537.241 429.642 581.725 433.768 591.891 435.473C625.045 419.714 657.814 405.104 695.602 412.312C709.58 414.978 723.26 419.315 737.245 422.128C743.434 423.374 747.91 433.211 754.066 434.288C760.102 435.402 765.939 434.153 771.896 433.177C789.46 429.744 799.527 433.454 815.598 439.664C837.286 428.152 853.336 425.461 877.415 430.418C879.573 410.382 883.359 397.408 905.273 392.445Z" fill="black"/>
<path d="M567.455 82.4041C577.32 81.6195 581.84 89.7256 587.987 96.2626C591.861 96.0024 595.161 96.1092 599.017 96.2088C612.625 82.641 617.261 80.1678 632.936 94.4863C636.121 97.395 638.34 99.3359 639.105 103.925C636.89 111.522 618.718 99.6227 612.792 97.5483C608.415 98.9303 606.627 99.8941 602.672 101.994C602.799 106.341 603.112 107.779 600.685 111.294L597.805 109.99C594.737 110.518 591.351 115.104 587.249 117.268C581.598 117.469 581.737 110.572 581.143 106.191C574.523 105.287 571.51 102.106 566.01 98.5513C557.697 99.7873 550.045 102.279 543.13 107.156C540.273 109.171 535.733 112.949 532.309 113.097C530.252 112.215 530.961 112.799 529.712 110.729C528.9 104.624 536.534 99.1733 540.745 95.547C548.711 88.6874 557.123 84.3463 567.455 82.4041Z" fill="black"/>
<path d="M674.345 230.434C680.009 230.343 686.258 235.889 690.993 239.282C697.846 229.743 705.682 229.694 715.762 236.884C717.402 238.053 717.495 239.867 717.476 241.724C712.608 246.809 700.276 233.811 695.734 245.94L693.795 246.453L692.042 250.051C691.663 250.241 691.278 250.431 690.9 250.622C686.205 247.687 681.523 245.649 676.417 243.752C670.354 241.496 655.256 250.461 651.885 244.941C653.574 236.941 667.352 232.209 674.345 230.434Z" fill="black"/>
<path d="M880.476 56.6415C887.754 57.0564 890.258 61.662 895.497 66.9817C905.817 57.8061 908.214 57.4935 922.405 62.932C924.118 63.5875 924.477 64.4177 924.942 66.0065C921.648 71.0127 908.566 65.0285 901.481 69.1246C900.006 71.5709 900.936 73.8955 901.501 76.9961C892.35 76.8945 894.647 84.767 883.743 81.5994C882.475 78.0488 895.358 71.7674 874.613 65.8718C869.738 67.2466 865.289 69.2928 860.734 67.2664L860.295 66.0029C862.699 60.4199 874.925 57.5114 880.476 56.6415Z" fill="black"/>
<path d="M173.328 261.608C189.358 245.905 201.813 229.362 215.268 211.427C248.199 167.535 276.915 119.923 289.124 65.8394C290.946 57.769 290.158 37.6218 298.688 34.4025C305.046 35.2826 305.309 40.9593 305.602 46.0738C307.515 47.797 309.615 50.0406 312.024 50.6938C320.093 49.5899 316.751 38.9766 323.338 35.9551C331.946 36.7981 330.137 47.8959 332.045 53.3323C339.505 74.5867 349.499 95.9553 361.844 114.835C377.731 139.135 395.068 162.392 414.39 184.083C425.517 196.577 436.199 209.323 448.656 220.6C453.235 224.845 459.936 229.433 465.194 233.233C497.392 256.51 532.659 278.182 567.661 296.951C587.364 307.516 613.05 314.247 634.311 320.641C641.868 322.451 669.212 323.498 678.309 324.039C690.807 324.78 715.689 326.835 726.886 325.682C768.589 321.388 810.591 305.633 844.464 280.857C870.137 262.747 890.145 237.123 905.107 209.731C910.399 200.034 913.819 188.227 918.673 178.462C936.072 143.457 948.921 108.271 957.388 70.0823C958.437 65.3369 964.613 38.899 971.055 37.9504C985.551 39.0178 977.775 56.0392 992.099 56.6419C992.77 56.6698 998.739 57.9084 1000.11 58.0691L1002.17 49.6516C1003.91 47.9171 1005.72 46.0141 1007.65 44.5126C1023.7 42.7668 1020.57 50.5325 1023.54 61.7053C1025.09 67.4995 1029.53 75.7151 1031.34 82.288C1042.47 122.693 1054.23 163.091 1075.29 199.666C1084.42 215.526 1102.71 229.175 1114.8 243.17C1123.44 253.014 1129.65 262.284 1139.37 271.227C1147.32 278.53 1147.79 276.359 1155.28 281.098C1168.55 289.501 1184.27 299.339 1198.55 305.832C1220.94 316.015 1245.39 325.366 1268.69 333.255C1277.07 336.093 1286.66 340.204 1294.78 342.648C1311.45 347.661 1332.02 346.945 1346.75 357.89C1327.94 357.148 1302.28 354.672 1284.55 349.193C1271.74 345.23 1262.82 339.471 1248.19 337.02C1248.97 341.563 1247.34 357.904 1246.93 363.205L1243.25 367.171C1263.37 368.84 1286.37 376.109 1306.05 380.873C1310.01 381.831 1314.99 386.877 1311.81 391.372C1308.57 392.897 1303.39 390.837 1299.88 390.052C1223.26 372.944 1144.57 367.309 1066.47 361.229C1053.46 360.215 1039.44 358.976 1026.56 358.71C1027.54 368.858 1026.76 379.262 1027.08 389.43C1027.64 407.258 1026.28 426.046 1027.15 443.812C1030.36 445.318 1034.11 446.399 1034.64 450.287C1032.5 453.592 1030.8 453.197 1027.02 453.397L1027.06 475.517C1039.19 469.792 1050.37 462.696 1062.36 456.875C1080.11 448.254 1097.97 444.704 1116.94 440.323C1150.31 388.599 1201.09 389.783 1252.58 413.708C1275.59 424.399 1287.03 430.26 1304.23 450.723C1317.18 449.071 1348.38 444.358 1360.43 447.442V454.755C1348.22 453.596 1321.89 455.87 1309.42 457.954C1306.65 460.833 1307.85 461.406 1304.71 462.729C1304.05 462.588 1303.23 462.417 1302.27 462.214C1295.06 455.168 1286.27 444.213 1278.43 438.081C1268.97 430.682 1256.93 426.315 1246.44 421.605C1214.83 407.407 1181.64 399.55 1150.35 419.192C1142.32 424.231 1135.66 431.837 1129.55 439.081C1135.07 438.829 1149.41 436.939 1151.96 443.34C1151.79 450.949 1129.76 445.1 1123.27 449.098C1116.58 453.222 1113.81 473.036 1105.18 466.039C1101.78 463.278 1107.05 454.74 1108.61 451.792C1076.81 457.208 1038.07 478.972 1010.79 496.778C1015.21 498.101 1027.58 501.197 1030.14 504.17L1030 504.822C1023.28 505.593 1010.1 503.858 1002.74 504.231C996.807 504.532 995.645 507.915 990.591 508.598C988.566 508.872 987.424 506.041 984.004 506.391C959.925 508.847 938.702 512.412 920.008 528.624C920.752 530.961 922.04 534.009 921.396 536.265C918.023 539.655 914.045 534.289 911.867 531.585C896.746 532.081 893.911 528.721 880.052 524.73C858.556 518.542 840.307 519.606 820.784 530.84C815.392 533.946 811.374 535.411 805.922 539.47C938.31 542.756 1070.72 544.816 1203.15 545.649L1299.33 546.154C1306.73 546.207 1329.64 544.602 1334.68 548.268C1338.05 554.919 1329.32 554.781 1325.38 554.731C1306.69 554.494 1288.06 554.242 1269.37 554.291C1132.91 553.886 996.462 552.187 860.03 549.193C661.07 543.751 462.016 542.386 262.997 545.099C207.976 545.816 152.559 548.953 97.4805 548.791C85.2391 548.755 73.4434 548.171 61.245 547.681C40.4319 548.213 21.6364 554.739 0.427734 553.322V545.718C3.92971 544.947 14.0204 544.269 18.3507 543.671C31.1331 542.58 48.0134 537.899 60.5617 538.536C96.4054 540.356 131.965 539.663 167.836 538.918C326.683 535.501 485.576 534.753 644.448 536.677C678.177 536.819 711.904 537.245 745.632 537.955C749.636 538.033 786.293 539.27 787.754 538.693C808.758 530.414 823.533 515.318 847.679 513.186C872.408 511.003 888.432 519.221 910.658 526.653C910.984 525.401 911.907 521.784 912.69 520.814C921.277 510.222 942.268 500.679 955.257 497.838C961.107 496.559 966.951 497.246 974.302 495.437C973.983 494.7 973.352 494.624 972.416 494.15C970.019 489.659 971.964 433.69 972.038 424.446C972.204 401.784 971.201 377.928 970.696 355.199L667.937 338.83C622.474 336.178 577.932 331.66 532.234 331.374C503.899 331.196 474.413 327.131 445.984 326.712C433.845 326.534 421.037 328.613 408.801 328.199C388.287 327.31 366.089 325.479 345.663 325.996C347.59 343.3 347.524 389.272 344.948 405.942C359.723 401.925 372.062 399.082 387.68 398.722C429.603 397.755 471.502 415.908 505.857 438.674C519.524 447.73 534.223 459.557 547.365 469.503C552.484 473.438 557.767 477.156 563.202 480.645C567.813 483.639 577.359 487.98 577.466 494.107C576.341 496.24 572.78 499.039 570.612 497.427C568.305 495.71 567.864 494.403 564.942 492.628C536.529 475.372 512.478 451.371 482.962 435.671C437.655 411.847 399.567 400.614 349.847 415.607C349.633 416.819 348.819 420.761 347.92 421.358C339.094 427.219 326.768 414.488 319.941 411.741C313.048 408.967 306.082 408.201 299.359 407.841C299.353 411.34 299.325 414.84 299.273 418.339C299.158 424.872 298.864 436 288.934 435.338C276.923 434.537 284.069 418.415 280.247 414.102C276.519 414.4 272.963 419.256 271.085 422.188C269.279 425.006 265.722 431.873 267.213 435.338C268.226 437.691 269.552 438.641 270.218 441.611C269.891 443.861 269.911 444.532 268.39 446.328C262.837 448.248 258.129 442.534 255.46 438.376C256.398 416.854 264.662 408.535 283.278 400.248C282.915 394.024 283.666 382.324 283.88 375.801L285.544 326.895C271.418 325.135 258.33 326.549 244.466 324.984C237.726 324.722 230.446 325.069 223.662 325.264C208.519 327.249 191.473 326.041 176.109 326.586C159.013 327.194 141.594 327.985 124.593 326.065C107.358 324.461 111.604 311.137 123.831 310.472C152.329 308.923 182.67 311.23 211.096 309.003L210.303 301.18C195.08 299.11 184.803 288.837 174.453 277.877C169.264 281.35 156.997 290.803 150.987 286.462C148.68 280.626 160.452 273.031 164.391 270.093C149.837 257.977 135.141 251.001 115.913 253.468C87.6185 257.162 58.814 271.998 40.9602 294.46C37.0622 299.364 26.7459 310.659 21.1554 304.799C11.6267 294.81 41.9732 271.452 47.5001 267.555C71.8623 250.378 103.177 237.602 133.339 241.463C148.304 243.626 161.682 252.784 173.328 261.608ZM933.98 171.839C927.857 184.762 922.691 198.459 916.608 211.04C905.585 233.859 888.538 252.362 872.481 271.487C874.155 283.62 873.657 302.315 873.252 314.712C872.993 322.675 869.44 324.892 871.027 335.034C901.893 337.237 938.901 340.408 969.727 341.128C968.877 325.121 968.717 308.003 968.359 291.905C966.971 229.323 959.44 164.914 963.378 102.411C963.65 100.013 964.773 94.3722 963.796 92.8136L964.407 91.7754L963.923 92.1989L964.328 92.5315L963.63 92.9105C962.827 95.0645 961.904 98.7319 961.233 101.048C958.338 110.666 955.383 119.743 952.016 129.174C949.977 134.886 942.214 152.031 942.161 157.126C941.55 213.766 943.31 270.344 943.722 326.955C943.742 329.16 942.898 330.348 941.398 331.748C939.146 332.403 938.814 332.525 936.517 332.16C934.086 329.417 934.79 300.023 934.604 293.705C933.927 270.508 933.807 247.096 933.389 223.871C933.011 208.334 935.215 186.601 933.98 171.839ZM1108.65 350.335C1107.65 318.76 1106.27 287.236 1107.51 255.668C1107.59 253.548 1107.77 251.411 1107.73 249.292C1095.19 238.718 1077.71 220.552 1067.85 207.402C1064.34 202.713 1058.1 187.35 1055.38 184.822L1055.46 185.138C1057.22 192.035 1056.51 210.461 1056.41 218.635L1056.06 259.615C1056.01 272.433 1059.06 340.392 1056.35 346.619C1058.81 347.484 1104.83 351.423 1108.24 350.895L1108.65 350.335ZM428.762 291.854C431.313 291.89 436.957 291.9 439.135 292.596C447.576 295.289 464.839 305.449 470.919 311.753C498.356 314.054 525.847 315.651 553.367 316.545C567.208 317.123 583.122 318.29 596.82 317.85C583.895 313.48 570.009 308.289 557.916 302.037C535.125 289.948 513.443 275.183 491.242 262.001C487.428 259.736 483.569 257.18 479.862 254.731C480.038 265.99 480.12 277.217 479.305 288.458C478.949 293.366 479.881 308.667 471.269 305.795C468.57 295.895 472.621 261.327 473.977 249.991C464.296 243.537 454.936 236.615 445.93 229.247C442.15 226.107 432.199 216.693 428.98 214.724C429.82 239.064 429.14 267.322 428.762 291.854ZM389.276 309.458C384.98 307.034 380.312 302.047 377.166 302.547C374.731 304.62 375.249 304.794 372.493 305.279C364.62 301.538 372.471 292.607 364.051 287.573C358.082 284.004 351.004 283.428 345.224 280.563C344.071 289.106 345.121 300.441 345.738 309.279C353.247 309.384 385.432 311.54 389.845 310.347C389.51 309.537 389.766 309.779 389.276 309.458ZM195.954 283.532C200.257 287.161 204.843 290.999 209.655 293.951C209.101 287.361 208.765 280.754 208.65 274.141C208.599 270.306 209.297 245.748 208.768 244.132C200.147 251.529 192.674 262.16 182.842 270.431C186.365 274.33 191.824 280.269 195.954 283.532ZM980.372 209.904C987.437 211.802 998.334 213.129 1005.34 210.843C1006.41 206.01 1004.66 171.034 1004.01 164.46C994.224 165.288 989.622 165.232 980.059 161.685C979.15 177.644 981.029 194.163 980.372 209.904ZM423.153 207.787C413.067 196.346 403.074 184.823 393.176 173.218C387.819 166.815 382.711 159.657 376.98 153.685C377.247 167.303 375.936 180.664 375.6 194.303C375.11 214.189 375.375 234.086 375.955 253.968C376.217 262.975 375.977 277.787 377.479 286.315C383.304 292.094 389.702 298.619 397.297 301.975C402.946 299.262 407.708 296.233 413.641 294.457C415.831 293.855 418.575 293.187 420.688 292.51C419.834 273.308 419.883 254.077 420.832 234.879C421.194 226.524 421.516 215.828 423.153 207.787ZM219.024 308.635C231.084 308.625 244.165 308.879 256.136 308.566C256.307 304.734 257.335 289.13 255.263 286.729L254.382 286.723C246.114 289.489 226.419 296.807 219.058 293.161C218.733 292.997 218.412 292.828 218.095 292.652C218.147 295.645 217.886 306.93 219.024 308.635ZM1009.76 310.464C1009.99 301.653 1008.81 232.985 1007.09 227.925C997.372 229.358 991.7 229.241 981.839 228.773C982.277 252.085 984.416 275.557 984.608 298.907C984.641 303.025 984.668 307.113 984.94 311.226C994.124 311.947 1000.82 312.839 1009.76 310.464ZM305.371 140.63C305.263 150.38 305.015 161.713 305.426 171.418L310.716 173.476C315.087 174.705 318.186 175.503 322.665 176.338C322.452 170.658 321.764 141.391 320.206 138.263L319.838 137.96C313.574 140.617 312.345 141.012 305.371 140.63ZM266.576 308.484L285.177 309.203C286.343 301.177 286.054 290.292 286.394 281.955L285.951 281.69C278.48 282.455 272.668 283.01 265.61 285.615C265.427 289.714 264.763 304.723 265.42 308.145L266.576 308.484ZM987.948 430.137C995.798 429.828 1002.76 428.883 1010.54 427.969C1010.54 422.511 1010.43 416.664 1010.57 411.242C1000.57 414.016 997.425 414.889 988.108 409.882C987.962 416.633 987.909 423.385 987.948 430.137ZM1001.46 74.3059C993.626 75.1894 990.664 75.4669 983.068 72.4792C979.455 96.1086 979.249 111.208 979.096 134.855C984.09 140.927 986.7 143.679 995.153 144.523C997.591 144.756 1000.02 144.957 1002.46 145.127L1003.89 143.77C1004.34 124.559 1002.88 93.729 1001.46 74.3059ZM302.128 376.217C301.233 380.455 300.914 385.363 301.561 389.655L302.028 390.14C302.805 389.39 304.605 387.694 305.611 387.542C313.423 386.367 321.434 386.048 329.321 385.07C329.296 382.514 329.677 373.831 328.25 372.413C320.363 375.427 310.562 376.759 302.128 376.217ZM325.777 325.479C318.237 326.089 310.099 325.411 303.576 326.227C302.93 327.667 303.032 327.049 303.692 328.923C304.855 329.579 304.498 329.676 305.451 329.56C310.083 328.92 324.154 327.385 327.665 326.186C326.925 325.189 326.87 325.426 325.777 325.479ZM829.716 332.676C829.39 325.516 829.125 310.919 828.195 304.374C827.205 303.717 827.723 303.788 826.681 303.882C806.341 315.439 785.894 322.416 763.409 328.28C766.264 328.738 769.538 329.353 772.387 329.471C791.678 330.103 810.398 331.885 829.716 332.676ZM1010.34 443.037C1001.2 443.797 996.9 444.112 987.902 443.147C986.859 455.274 986.866 477.011 987.105 489.502C985.73 491.714 984.648 492.58 984.668 494.827C986.654 495.725 989.091 495.283 991.375 495.135C1000.08 494.927 1009.38 487.584 1016.58 482.293C1007.11 474.721 1013.79 445.88 1010.34 443.037ZM327.038 294.656C319.319 303.048 314.304 301.919 303.57 301.191C303.403 303.383 302.925 306.948 303.503 308.916L303.963 309.329C311.851 309.261 320.026 309.342 327.858 308.603C327.752 306.273 327.434 296.389 327.038 294.656ZM404.342 310.668C413.307 311.41 419.384 311.12 428.343 310.201C436.242 309.668 443.446 309.746 451.359 309.941C442.422 306.847 438.701 302.004 429.115 302.878C419.277 303.829 413.101 307.887 404.342 310.668ZM986.654 356.431C986.74 359.565 986.773 362.957 986.959 366.063C995.492 367.32 998.826 365.255 1006.99 362.22C1009.26 361.412 1009.32 361.831 1010.37 360.076C1008.88 356.448 991.063 356.478 986.654 356.431ZM1149.41 289.35C1140.13 285.065 1133.28 279.006 1126.4 271.645C1124.06 269.142 1117.25 259.733 1114.73 259.055C1114.77 289.128 1118.19 322.995 1116.72 352.438C1121.22 352.64 1144.43 355.007 1146.16 354.356L1146.51 353.722C1147.38 336.982 1147.08 304.644 1149.41 289.35ZM985.677 342.495C993.606 343.002 1002.19 343.717 1010.08 343.959C1010.04 339.239 1010.04 335.77 1010.44 331.045C1000.78 331.332 995.14 331.34 985.624 330.293C985.598 334.045 985.425 338.829 985.677 342.495ZM1208.44 320.975C1207.8 329.539 1206.88 337.535 1205.87 346.039C1205.34 350.608 1205.79 356.739 1205.25 361.185C1214.63 362.773 1229.42 365.191 1238.81 366.119C1239.95 355.745 1239.85 344.144 1241.73 333.964C1231.69 329.95 1218.46 324.24 1208.44 320.975ZM310.815 120.136C314.414 121.431 318.065 122.986 320.338 118.702C320.612 113.13 318.846 72.7241 317.476 68.8197L316.628 68.4852C311.954 70.0026 310.785 70.2708 305.961 70.6445C305.334 83.7456 305.015 101.839 305.311 114.983C306.924 116.697 308.838 118.964 310.815 120.136ZM313.509 282.091C316.401 281.822 326.677 282.836 327.02 282.733C327.182 280.536 327.406 281.335 326.338 279.623C324.195 278.522 322.098 278.919 319.605 279.037C316.549 279.124 306.948 279.136 304.648 279.866C304.025 281.768 303.888 281.276 304.279 282.969C306.802 283.586 310.812 282.575 313.509 282.091ZM835.659 298.818C836.901 310.618 837.22 322.085 838.395 333.372C847.18 333.841 856.364 334.199 865.103 334.829C864.559 324.304 867.129 283.2 865.409 277.28C855.196 283.718 847.333 292.069 835.659 298.818ZM323.063 193.961C316.903 195.198 313.971 196.32 307.891 194.979L306.049 193.307C304.619 199.434 304.926 215.686 304.876 222.746L304.422 268.546C312.011 267.766 319.114 268.556 326.603 267.807C327.001 250.869 324.011 232.908 324.286 215.838C324.402 208.696 323.274 201.163 323.063 193.961ZM1157 294.466C1156.26 314.478 1157.22 335.802 1155.13 355.667C1161.63 356.368 1193.52 360.624 1197.56 359.365L1197.84 357.891C1196.9 343.569 1201.05 332.343 1202.08 318.094C1194.36 314.245 1186.64 310.604 1178.95 306.666C1171.71 302.955 1164.17 298.042 1157 294.466ZM987.842 382.642C987.875 388.294 987.875 391.264 988.812 396.806C997.385 393.532 1001.43 393.244 1010.53 392.148C1010.43 390.902 1009.85 382.458 1009.7 381.829C1000.55 383.57 997.225 384.081 987.842 382.642ZM326.043 343.836C316.399 346.836 312.29 346.842 302.224 346.467C302.046 349.126 301.17 355.736 302.866 357.786C303.384 358.412 304.341 358.21 305.39 358.254C315.474 357.631 319.283 356.987 329.055 354.891C329.17 351.741 329.635 346.917 328.687 344.081C327.051 343.367 327.898 343.489 326.043 343.836ZM288.349 108.579C284.777 118.685 280.733 128.62 276.233 138.349C273.795 143.573 267.094 156.177 266.045 161.048C264.535 168.058 267.644 181.504 267.724 189.784C267.717 206.122 267.5 222.459 267.074 238.791C266.895 243.984 265.555 269.812 266.273 273.373C271.556 272.619 281.703 270.863 286.675 270.653C287.697 258.917 287.531 245.14 287.882 233.229C288.854 200.206 287.869 167.022 288.151 133.947C288.183 130.124 288.922 110.507 288.349 108.579ZM367.606 270.998C365.133 235.423 365.351 177.9 371.066 143.328C361.883 132.221 352.876 115.922 344.49 103.917C342.35 100.854 339.329 92.0204 336.884 89.2398C337.096 130.462 341.106 173.178 341.539 214.54C341.726 232.315 343.965 251.504 343.607 269.12C345.857 269.749 366.928 276.678 367.147 276.663C367.682 274.123 367.664 273.537 367.606 270.998ZM257.381 274.985C256.559 267.259 257.489 250.335 257.716 242.016C258.31 224.126 258.624 206.228 258.656 188.328C258.684 184.943 259.636 173.235 259.174 171.035C253.382 180.138 246.835 190.395 240.899 199.163C237.31 204.464 220.541 227.235 219.054 231.579C215.71 241.358 216.646 275.598 217.943 285.915C229.301 283.574 246.559 279.446 257.381 274.985ZM1027.13 345.053C1030.75 345.126 1046.81 346.031 1048.66 345.504C1048.67 343.739 1048.71 341.926 1048.64 340.166C1048.05 316.675 1044.37 191.692 1051.52 176.403C1041.23 150.397 1032.29 126.614 1025.38 99.3778C1024.59 96.2507 1022.37 88.5289 1020.53 86.0808L1026.26 283.082C1026.67 296.012 1026.92 308.946 1027.02 321.881C1027.05 328.801 1026.69 338.545 1027.13 345.053Z" fill="black"/>
<path d="M961.233 101.048C961.904 98.732 962.827 95.0646 963.631 92.9106L964.328 92.5316L963.923 92.199L964.408 91.7755L963.797 92.8137C964.773 94.3723 963.651 100.013 963.378 102.411L961.233 101.048Z" fill="black" fill-opacity="0.054902"/>
<path d="M223.662 325.264C230.446 325.069 237.726 324.722 244.466 324.984L244.056 326.756C240.326 326.617 224.717 326.513 222.138 327.698L221.958 326.984L223.662 325.264Z" fill="black" fill-opacity="0.0823529"/>
<path d="M222.138 327.698C224.717 326.513 240.326 326.617 244.056 326.756C241.507 328.655 225.915 327.995 222.138 327.698Z" fill="black" fill-opacity="0.478431"/>
</g>
<defs>
<clipPath id="clip0_297_8814">
<rect width="1360" height="579" fill="white"/>
</clipPath>
</defs>
</svg>
