<svg width="766" height="563" viewBox="0 0 766 563" fill="none" xmlns="http://www.w3.org/2000/svg">
<g clip-path="url(#clip0_311_11826)">
<path d="M445.657 555.559C443.528 554.556 440.986 553.369 440.453 550.934C437.369 536.913 457.931 541.2 461.089 527.541C466.257 505.162 458.796 482.087 471.446 461.508C480.63 445.977 490.62 439.891 507.463 435.074C516.917 422.504 514.181 410.582 520.261 396.096C525.603 383.392 531.795 371.041 537.814 358.649C548.77 335.687 560.193 312.952 572.068 290.453C581.222 273.284 592.443 255.913 601.915 238.682L654.435 142.178C673.402 106.72 691.338 71.2798 713.402 37.4789C717.357 31.42 725.369 13.9396 730.367 10.5274C738.816 9.76833 742.483 16.1381 743.229 23.6911C743.239 24.3268 743.244 24.9588 743.247 25.5931C743.357 47.5461 730.373 73.6401 722.327 93.8754C716.952 107.38 708.198 122.211 701.286 135.214C690.088 156.243 679.367 177.522 669.142 199.041C663.149 211.968 656.97 224.922 651.178 237.922C630.683 283.928 613.235 331.55 587.953 375.331C573.048 401.344 554.741 425.254 533.517 446.429C545.814 473.523 542.221 500.954 520.404 521.941C505.387 536.385 483.49 540.583 465.419 549.892C459.45 552.966 452.408 555.713 445.657 555.559ZM729.975 39.7796L730.004 36.5791L729.293 36.1484C726.825 38.3214 722.287 47.2949 720.224 50.6361C708.226 69.7098 696.947 89.2275 686.41 109.146C679.025 123.103 672.581 137.98 664.81 151.616C641.559 192.42 620.794 234.987 596.805 275.312C575.029 311.925 557.691 350.187 538.141 387.976C532.733 398.427 527.835 411.213 526.273 422.913C525.595 427.744 522.425 428.245 526.03 432.683C540.044 418.939 556.708 395.746 567.978 378.922C595.009 338.552 613.322 291.438 633.206 247.339C642.681 226.117 653.292 204.991 663.283 183.959C671.031 167.448 679.235 151.156 687.891 135.103C702.594 107.314 722.453 70.3211 729.975 39.7796ZM521.893 450.005C518.827 449.184 515.324 448.339 512.38 447.274C476.644 461.219 471.643 479.182 474.066 515.01C474.247 517.684 471.735 527.769 472.978 529.612C498.297 519.915 511.049 520.044 525.264 491.499C531.454 479.071 526.663 463.022 521.893 450.005Z" fill="black"/>
<path d="M248.762 50.464C265.487 49.2837 289.553 50.531 306.094 53.5041C320.697 56.1294 335.267 59.2751 350.281 61.4403C364.784 63.5326 381.851 70.0377 396.533 73.0606C404.761 74.7552 416.701 83.478 425.214 86.163C432.678 89.612 447.998 96.0926 454.439 99.7832C469.301 109.178 487.038 118.44 499.861 130.479C517.678 147.207 536.783 163.459 548.245 185.366C559.919 207.691 565.384 231.008 557.96 255.618C554.992 265.45 547.455 277.177 540.601 284.981C522.971 300.927 496.654 320.783 475.689 331.255C434.856 351.654 422.611 360.98 406.209 405.543C389.886 449.9 354.252 489.443 311.832 511.726C295.025 521.278 273.124 530.086 253.492 530.684C234.185 531.274 212.041 530.093 193.316 525.539C186.634 523.913 180.215 521.218 173.84 518.676C147.212 508.069 122.78 494.102 101.893 474.249C89.0178 462.008 66.3533 439.183 57.257 424.935C42.2166 401.379 18.7002 317.407 18.0069 288.148C17.6948 274.977 18.8244 262.269 19.8524 249.191C23.0485 208.531 28.2388 176.512 49.2949 140.661C54.8411 131.218 60.8416 121.822 68.4451 113.879C80.7143 101.064 107.534 80.3874 123.58 72.9623C132.372 68.8933 143.16 67.8087 152.559 65.5704C174.469 60.3511 196.014 53.9893 218.509 51.5499C228.446 50.4719 238.754 50.6843 248.762 50.464ZM312.868 497.694C343.813 477.375 371.903 450.278 386.227 415.531C394.853 396.993 402.005 363.892 417.378 350.067C449.001 321.629 490.272 309.589 521.888 280C566.905 237.875 540.781 182.977 501.262 148.333C484.78 133.886 469.706 118.774 448.576 109.605C432.492 103.009 408.851 87.4654 393.126 82.937C344.597 68.961 292.926 58.1546 242.208 61.0115C232.743 61.5253 221.072 62.1187 211.912 63.7456C194.196 66.892 176.566 71.7954 159.133 76.2228C152.187 77.9872 139.373 78.8501 133.489 81.8365C114.244 91.6054 94.9903 105.572 80.6214 121.65C72.6154 130.609 67.2306 139.951 61.586 149.857C43.6683 181.304 33.9789 216.14 32.9961 252.323C32.6482 265.146 31.2749 275.698 32.3414 289.231C33.2651 300.945 34.143 313.093 36.938 324.658C39.399 334.842 42.9451 346.334 46.0031 356.447C51.4531 374.472 58.1502 400.718 67.4225 416.826C78.4486 435.98 99.1733 456.844 115.544 471.985C123.858 479.678 134.545 486.21 143.98 492.144C168.502 507.564 192.762 517.62 222.091 519.492C229.826 519.99 238.848 521.085 246.703 520.335C269.139 518.198 293.65 508.865 312.868 497.694Z" fill="black"/>
<path d="M114.379 255.433C124.489 254.559 140.574 262.504 146.633 270.645C154.2 280.816 145.979 294.086 144.069 304.856C148.72 315.505 156.465 316.77 155.939 329.086C155.658 335.698 152.385 343.522 147.342 347.856C140.43 353.793 136.149 353.734 127.998 353.437C120.436 358.073 117.849 360.285 109.016 361.933C99.779 363.091 85.8935 359.751 78.879 353.78C61.181 338.718 54.9641 313.173 80.2284 301.464C83.5852 299.908 92.8887 300.491 93.9233 297.211C97.3738 286.271 90.532 273.776 98.6163 263.755C101.637 260.011 109.712 255.925 114.379 255.433ZM88.6799 309.292C84.6915 312.122 81.6601 313.951 78.8883 318.113C70.8259 330.221 83.9298 345.117 93.2891 352.509C98.1268 352.774 102.111 352.929 106.953 352.849C117.257 350.374 119.32 344.357 133.869 341.804C138.083 337.637 141.613 333.616 142.07 327.28C142.666 319.011 130.752 313.085 130.878 305.656C131.062 294.672 136.775 289.806 137.022 277.636C132.904 270.003 124.467 265.634 115.879 265.66C101.33 276.645 116.444 296.147 106.466 308.854C104.378 311.513 92.5408 309.497 88.6799 309.292Z" fill="black"/>
<path d="M252.662 85.2149C265.022 84.3526 266.457 89.0436 275.096 95.8348C277.899 97.5732 281.299 98.8391 284.181 100.374C300.324 108.992 317.596 125.34 300.145 142.733C295.742 147.122 290.25 150.762 287.089 156.225C283.39 162.621 286.133 172.947 279.419 177.596C273.39 181.524 266.198 182.203 259.087 180.821C249.285 180.937 248.023 181.071 239.944 175.101C229.759 167.575 216.701 162.526 209.575 151.33C207.523 148.105 210.104 142.092 211.741 139.064C215.655 132.341 221.635 127.566 226.132 121.164C224.12 118.792 222.091 116.098 220.159 113.634C220.451 112.096 221.2 108.53 221.678 107.237C224.73 98.9997 244.638 88.8637 252.662 85.2149ZM236.524 105.701C251.169 124.159 228.583 131.283 221.545 149.546C230.825 163.758 232.884 159.149 246.329 166.408C249.036 167.869 250.778 172.664 255.483 174.928C263 173.784 265.706 172.95 270.913 167.336C270.946 164.235 270.893 159.012 271.696 156.304C278.51 133.353 307.476 134.524 281.418 108.648C280.555 107.792 279.725 107.08 278.689 106.296C274.631 105.664 272.194 105.367 268.283 104.194C262.921 102.587 257.451 95.3462 254.89 95.1371C247.945 98.3512 242.668 101.08 236.524 105.701Z" fill="black"/>
<path d="M126.44 137.933C130.765 137.472 139.713 139.547 144.096 141.168C159.368 146.818 170.833 171.126 164.355 186.167C163.709 187.667 160.84 194.07 160.81 195.261C160.49 208.047 158.481 218.416 145.055 223.571C134.311 227.676 125.248 225.461 114.845 220.872C107.969 220.264 99.6818 220.45 92.3864 219.931C83.1181 213.351 73.3836 209.239 71.8755 196.565C71.238 191.207 68.682 181.663 72.3669 177.023C77.3733 169.342 99.1758 181.273 99.7057 168.449C100.54 148.245 103.59 141.13 126.44 137.933ZM85.8454 197.391C89.0568 203.576 92.0411 207.925 97.5143 212.481C105.58 212.36 107.886 212.252 115.899 209.982C124.134 212.17 130.757 217.807 139.245 212.813C146.437 208.582 148.624 200.528 146.433 192.946C157.097 170.208 153.193 167.008 139.837 147.384C134.374 146.977 130.067 146.745 124.568 147.087C120.177 149.165 119.1 150.913 117.147 155.402C113.91 162.84 116.408 179.033 108.487 183.149C103.524 185.728 92.9914 182.49 87.6868 181.635C87.1616 185.63 85.8434 193.786 85.8454 197.391Z" fill="black"/>
<path d="M166.957 385.502C188.447 383.903 186.747 407.195 194.492 418.367C201.169 427.996 221.69 436.522 218.699 451.488C215.053 469.729 201.78 456.771 191.301 461.922C185.67 465.069 182.97 473.014 176.494 477.309C169.871 479.38 170.091 477.389 164.368 476.081C161.809 475.49 158.051 478.617 153.971 475.052C135.964 459.307 112.344 432.438 130.641 408.142C139.203 396.487 152.674 388.144 166.957 385.502ZM170.783 467.804C175.081 462.102 180.349 453.313 187.744 452.105C191.476 451.501 199.938 451.999 202.979 450.627C210.21 436.138 186.015 430.472 179.684 421.462C174.997 414.794 177.055 404.532 171.649 398.676C171.007 398.636 170.679 398.512 170.186 398.728C158.467 403.033 145.159 410.249 139.266 421.726C137.505 425.154 136.68 433.139 138.627 436.478C143.401 444.662 157.505 477.953 170.783 467.804Z" fill="black"/>
<path d="M495.9 244.077C496.446 265.094 473.828 262.341 462.576 269.363C452.879 275.416 443.603 295.013 429.16 291.393C411.556 286.982 424.808 274.658 420.281 264.203C417.48 258.567 409.864 255.561 405.984 249.049C404.278 242.497 406.208 242.806 407.752 237.289C408.448 234.824 405.578 231.014 409.244 227.206C425.435 210.399 452.732 188.646 475.547 207.621C486.502 216.513 493.998 230.034 495.9 244.077ZM415.516 243.93C420.87 248.388 429.187 253.935 430.016 261.199C430.429 264.864 429.545 273.087 430.738 276.115C444.519 283.844 451.179 260.532 460.257 254.786C466.976 250.534 476.88 253.022 482.841 248.029C482.91 247.406 483.047 247.092 482.859 246.601C479.215 234.978 472.81 221.67 461.903 215.386C458.645 213.509 450.903 212.329 447.557 214.07C439.357 218.336 406.25 230.514 415.516 243.93Z" fill="black"/>
<path d="M393.187 98.2571C399.422 97.8542 411.966 103.247 415.087 108.98C420.758 119.404 415.446 133.403 419.835 144.233C422.233 150.139 428.634 155.851 426.463 162.918C421.429 176.177 394.335 173.076 383.983 170.26C381.725 171.129 380.125 171.894 377.966 172.95C358.27 186.191 339.079 168.309 344.85 147.763C346.835 140.686 354.286 118.248 358.868 113.076C365.947 105.079 382.668 99.6643 393.187 98.2571ZM370.861 163.182C373.278 161.509 376.373 159.233 378.863 157.824C386.26 158.352 405.532 164.878 408.772 156.765C408.507 151.826 404.077 146.674 402.962 141.903C400.445 131.132 405.91 117.339 398.18 108.189C396.66 107.606 396.421 107.784 394.754 108.165C387.881 109.513 373.577 112.363 369.951 119.104C363.822 130.503 355.262 146.923 356.683 160.189C357.673 169.434 365.668 166.62 370.861 163.182Z" fill="black"/>
<path d="M322.161 395.147C336.69 393.835 359.328 405.293 359.401 421.831C359.435 428.832 351.34 438.293 346.392 443.013C337.255 451.735 319.657 453.129 307.638 452.638C300.539 452.206 280.71 451.409 275.703 445.953C260.39 429.295 272.217 411.606 289.429 403.027C301.276 397.125 308.919 395.663 322.161 395.147ZM312.525 440.822C323.13 439.873 343.643 430.804 342.375 417.914C342.049 414.813 340.462 411.983 337.985 410.093C332.52 405.894 323.403 405.322 316.828 406.318C306.894 408.232 294.29 414.08 288.818 422.63C278.485 438.798 302.319 441.698 312.525 440.822Z" fill="black"/>
</g>
<defs>
<clipPath id="clip0_311_11826">
<rect width="766" height="563" fill="white"/>
</clipPath>
</defs>
</svg>
