<svg width="630" height="637" viewBox="0 0 630 637" fill="none" xmlns="http://www.w3.org/2000/svg">
<path d="M609.266 14.0625C611.564 14.5681 614.306 15.1614 615.365 17.4178C621.482 30.4064 600.481 30.7852 600.43 44.8043C600.353 67.7726 612.745 88.6188 604.974 111.49C599.463 128.672 591.071 136.821 575.715 145.253C569.284 159.607 574.595 170.625 571.879 186.098C569.487 199.671 566.188 213.087 563.066 226.506C557.475 251.325 551.378 276.028 544.787 300.6C539.668 319.371 532.579 338.797 527.164 357.7L497.351 463.447C486.719 502.228 477.088 540.764 463.068 578.616C460.555 585.401 456.619 604.223 452.502 608.658C444.431 611.272 439.443 605.874 437.041 598.674C436.89 598.057 436.746 597.441 436.602 596.824C431.627 575.442 438.501 547.118 441.86 525.602C444.106 511.242 449.354 494.84 453.21 480.627C459.466 457.639 465.202 434.512 470.401 411.262C473.378 397.327 476.531 383.326 479.296 369.365C489.079 319.959 495.532 269.654 510.477 221.357C519.243 192.686 531.791 165.312 547.792 139.958C529.794 116.266 527.214 88.7199 543.834 63.4186C555.274 46.0034 575.695 37.0543 591.253 23.97C596.391 19.6491 602.649 15.4087 609.266 14.0625ZM446.398 580.047L447.079 583.175L447.868 583.437C449.792 580.771 452.228 571.014 453.498 567.299C460.969 546.039 467.639 524.507 473.497 502.748C477.603 487.501 480.587 471.565 485.141 456.545C498.765 411.601 509.574 365.489 524.024 320.848C537.139 280.318 545.561 239.164 556.245 197.981C559.201 186.591 561.141 173.037 560.07 161.282C559.66 156.421 562.64 155.23 558.141 151.702C547.523 168.211 536.417 194.522 529.158 213.426C511.752 258.784 504.342 308.786 494.732 356.197C490.199 378.992 484.536 401.945 479.458 424.669C475.564 442.486 471.177 460.192 466.297 477.766C458.121 508.123 446.96 548.598 446.398 580.047ZM558.334 133.893C561.505 134.014 565.109 134.061 568.216 134.447C599.97 112.925 600.863 94.3004 590.555 59.9018C589.786 57.3337 589.999 46.9432 588.378 45.4212C565.84 60.4915 553.376 63.1938 545.845 94.18C542.566 107.671 550.795 122.258 558.334 133.893Z" fill="black"/>
<path d="M323.573 143.915L279.34 137.389H239.457L172.745 151.166L129.962 161.318L90.0798 185.247L63.975 221.504L37.145 278.79L32.0693 335.35V389.735L41.4958 428.167L57.4487 486.903L81.3784 525.335L108.933 550.715L145.19 581.17L196.675 601.474L239.457 607.275L284.416 601.474L333 577.545L371.432 541.288L396.086 505.756L408.414 467.324L428.717 433.968L468.6 409.314L522.985 377.408L551.99 344.052L557.066 307.795L542.563 264.287L512.108 229.481L468.6 193.224L435.243 180.171L383.034 155.517L323.573 143.915Z" fill="white" stroke="black"/>
<path d="M120.5 343.263L110 345.763L102 353.263V385.763H92.5L72 401.263L82 428.763L102 440.263L120.5 434.763L144 428.763L151 411.763L141.5 390.763L147 371.763L144 353.263L120.5 343.263Z" fill="#4E9AC3"/>
<path d="M251.778 132.464C268.503 131.284 292.568 132.531 309.11 135.504C323.713 138.129 338.282 141.275 353.297 143.44C367.8 145.533 384.866 152.038 399.549 155.061C407.776 156.755 419.716 165.478 428.23 168.163C435.694 171.612 451.014 178.093 457.455 181.783C472.317 191.178 490.054 200.44 502.877 212.479C520.694 229.207 539.799 245.459 551.26 267.366C562.935 289.691 568.4 313.008 560.976 337.618C558.007 347.45 550.47 359.177 543.617 366.981C525.986 382.927 499.669 402.783 478.705 413.255C437.872 433.654 425.626 442.98 409.224 487.543C392.901 531.9 357.268 571.443 314.848 593.726C298.04 603.278 276.139 612.086 256.508 612.684C237.201 613.274 215.056 612.093 196.332 607.539C189.649 605.913 183.231 603.218 176.855 600.676C150.227 590.069 125.796 576.102 104.909 556.249C92.0334 544.008 69.3689 521.183 60.2726 506.935C45.2322 483.379 21.7158 399.407 21.0226 370.148C20.7104 356.977 21.84 344.269 22.868 331.191C26.0641 290.531 31.2544 258.512 52.3105 222.661C57.8567 213.218 63.8572 203.822 71.4607 195.879C83.73 183.064 110.549 162.387 126.596 154.962C135.388 150.893 146.176 149.809 155.574 147.57C177.484 142.351 199.029 135.989 221.524 133.55C231.462 132.472 241.77 132.684 251.778 132.464ZM315.884 579.694C346.829 559.375 374.919 532.278 389.243 497.531C397.869 478.993 405.021 445.892 420.394 432.067C452.016 403.629 493.288 391.589 524.904 362C569.921 319.875 543.796 264.977 504.278 230.333C487.796 215.886 472.722 200.774 451.591 191.605C435.508 185.009 411.867 169.465 396.142 164.937C347.612 150.961 295.942 140.155 245.224 143.012C235.758 143.525 224.088 144.119 214.927 145.746C197.212 148.892 179.581 153.795 162.149 158.223C155.203 159.987 142.389 160.85 136.505 163.836C117.26 173.605 98.006 187.572 83.637 203.65C75.6311 212.609 70.2462 221.951 64.6017 231.857C46.6839 263.304 36.9946 298.14 36.0117 334.323C35.6638 347.146 34.2905 357.698 35.357 371.231C36.2807 382.945 37.1586 395.093 39.9536 406.658C42.4147 416.842 45.9608 428.334 49.0188 438.447C54.4687 456.472 61.1658 482.718 70.4381 498.826C81.4642 517.98 102.189 538.844 118.56 553.985C126.873 561.678 137.561 568.21 146.996 574.144C171.518 589.564 195.777 599.62 225.107 601.492C232.842 601.99 241.864 603.085 249.719 602.335C272.155 600.198 296.666 590.865 315.884 579.694Z" fill="black"/>
<path d="M236.5 200.763L219.5 228.263L228.5 243.263L254 259.763L276.5 255.763L279 246.263L300 219.263V197.263L276.5 182.763L262.5 171.263L254 174.763L232.5 188.763L236.5 200.763Z" fill="#CC6FAD"/>
<path d="M147 301.263L156 280.263L164 251.263L145 224.263H127.5L115.5 235.263L107.5 260.763H85.5L80 272.263L96.5 298.263H118L147 301.263Z" fill="#F1DFC1"/>
<path d="M117.395 337.433C127.505 336.559 143.59 344.504 149.648 352.645C157.216 362.816 148.994 376.086 147.084 386.856C151.735 397.505 159.481 398.77 158.955 411.086C158.674 417.698 155.401 425.522 150.357 429.856C143.446 435.793 139.165 435.734 131.014 435.437C123.452 440.073 120.864 442.285 112.032 443.933C102.795 445.091 88.9091 441.751 81.8946 435.78C64.1967 420.718 57.9797 395.173 83.244 383.464C86.6008 381.908 95.9043 382.491 96.939 379.211C100.389 368.271 93.5476 355.776 101.632 345.755C104.653 342.011 112.728 337.925 117.395 337.433ZM91.6955 391.292C87.7072 394.122 84.6757 395.951 81.9039 400.113C73.8415 412.221 86.9455 427.117 96.3048 434.509C101.142 434.774 105.127 434.929 109.969 434.849C120.273 432.374 122.336 426.357 136.885 423.804C141.098 419.637 144.629 415.616 145.085 409.28C145.682 401.011 133.768 395.085 133.893 387.656C134.078 376.672 139.791 371.806 140.037 359.636C135.92 352.003 127.483 347.634 118.894 347.66C104.345 358.645 119.459 378.147 109.482 390.854C107.393 393.513 95.5564 391.497 91.6955 391.292Z" fill="black"/>
<path d="M255.678 167.215C268.038 166.353 269.472 171.044 278.112 177.835C280.914 179.573 284.314 180.839 287.196 182.374C303.34 190.992 320.612 207.34 303.16 224.733C298.758 229.122 293.266 232.762 290.105 238.225C286.406 244.621 289.149 254.947 282.435 259.596C276.405 263.524 269.213 264.203 262.103 262.821C252.3 262.937 251.039 263.071 242.96 257.101C232.774 249.575 219.717 244.526 212.591 233.33C210.538 230.105 213.12 224.092 214.757 221.064C218.671 214.341 224.65 209.566 229.148 203.164C227.136 200.792 225.107 198.098 223.175 195.634C223.467 194.096 224.215 190.53 224.694 189.237C227.745 181 247.654 170.864 255.678 167.215ZM239.539 187.701C254.185 206.159 231.599 213.283 224.561 231.546C233.841 245.758 235.899 241.149 249.345 248.408C252.052 249.869 253.793 254.664 258.498 256.928C266.016 255.784 268.722 254.95 273.928 249.336C273.962 246.235 273.908 241.012 274.712 238.304C281.525 215.353 310.492 216.524 284.434 190.648C283.57 189.792 282.74 189.08 281.704 188.296C277.647 187.664 275.21 187.367 271.299 186.194C265.937 184.587 260.466 177.346 257.905 177.137C250.96 180.351 245.684 183.08 239.539 187.701Z" fill="black"/>
<path d="M171.5 475.263L149.5 486.263L130 510.263L158 552.263L179 557.263L188.5 540.263L212 536.763L217 530.263L188.5 501.763L179 475.263H171.5Z" fill="#F61212"/>
<path d="M389.5 187.263L369.5 199.263L350 235.763L362.5 252.763L378 249.763H406.5L420.5 241.263L415 222.763L410 190.263L389.5 187.263Z" fill="black" stroke="black"/>
<path d="M129.455 219.933C133.78 219.472 142.729 221.547 147.111 223.168C162.383 228.818 173.848 253.126 167.37 268.167C166.724 269.667 163.856 276.07 163.826 277.261C163.506 290.047 161.497 300.416 148.07 305.571C137.327 309.676 128.263 307.461 117.861 302.872C110.985 302.264 102.697 302.45 95.402 301.931C86.1337 295.351 76.3992 291.239 74.8911 278.565C74.2536 273.207 71.6976 263.663 75.3825 259.023C80.3889 251.342 102.191 263.273 102.721 250.449C103.556 230.245 106.606 223.13 129.455 219.933ZM88.861 279.391C92.0724 285.576 95.0567 289.925 100.53 294.481C108.596 294.36 110.901 294.252 118.914 291.982C127.15 294.17 133.773 299.807 142.261 294.813C149.453 290.582 151.639 282.528 149.449 274.946C160.113 252.208 156.208 249.008 142.853 229.384C137.389 228.977 133.082 228.745 127.584 229.087C123.193 231.165 122.116 232.913 120.162 237.402C116.926 244.84 119.424 261.033 111.503 265.149C106.54 267.728 96.007 264.49 90.7025 263.635C90.1772 267.63 88.859 275.786 88.861 279.391Z" fill="black"/>
<path d="M488 313.263L469 288.763H455L437.5 295.263L413.5 313.263V325.763L428.5 340.263V359.763L434.5 369.763L458.5 352.263L488 336.263V313.263Z" fill="#33612C"/>
<path d="M169.973 467.502C191.462 465.903 189.762 489.195 197.508 500.367C204.184 509.996 224.705 518.522 221.714 533.488C218.069 551.729 204.796 538.771 194.317 543.922C188.686 547.069 185.985 555.014 179.51 559.309C172.887 561.38 173.107 559.389 167.383 558.081C164.825 557.49 161.067 560.617 156.986 557.052C138.979 541.307 115.359 514.438 133.657 490.142C142.218 478.487 155.69 470.144 169.973 467.502ZM173.798 549.804C178.097 544.102 183.365 535.313 190.76 534.105C194.492 533.501 202.954 533.999 205.995 532.627C213.226 518.138 189.031 512.472 182.699 503.462C178.013 496.794 180.071 486.532 174.665 480.676C174.023 480.636 173.695 480.512 173.201 480.728C161.483 485.033 148.175 492.249 142.281 503.726C140.521 507.154 139.695 515.139 141.643 518.478C146.416 526.662 160.521 559.953 173.798 549.804Z" fill="black"/>
<path d="M498.915 326.077C499.462 347.094 476.844 344.341 465.592 351.363C455.894 357.416 446.619 377.013 432.176 373.393C414.571 368.982 427.823 356.658 423.297 346.203C420.496 340.567 412.88 337.561 409 331.049C407.293 324.497 409.223 324.806 410.767 319.289C411.463 316.824 408.594 313.014 412.259 309.206C428.451 292.399 455.747 270.646 478.563 289.621C489.517 298.513 497.013 312.034 498.915 326.077ZM418.532 325.93C423.886 330.388 432.202 335.935 433.031 343.199C433.444 346.864 432.561 355.087 433.754 358.115C447.534 365.844 454.194 342.532 463.273 336.786C469.992 332.534 479.896 335.022 485.856 330.029C485.925 329.406 486.062 329.092 485.875 328.601C482.231 316.978 475.826 303.67 464.919 297.386C461.661 295.509 453.918 294.329 450.572 296.07C442.372 300.336 409.266 312.514 418.532 325.93Z" fill="black"/>
<path d="M396.202 180.257C402.438 179.854 414.982 185.247 418.103 190.98C423.774 201.404 418.462 215.403 422.851 226.233C425.248 232.139 431.65 237.851 429.478 244.918C424.445 258.177 397.351 255.076 386.998 252.26C384.741 253.129 383.14 253.894 380.982 254.95C361.286 268.191 342.094 250.309 347.865 229.763C349.851 222.686 357.302 200.248 361.884 195.076C368.962 187.079 385.683 181.664 396.202 180.257ZM373.876 245.182C376.294 243.509 379.388 241.233 381.878 239.824C389.276 240.352 408.547 246.878 411.788 238.765C411.522 233.826 407.093 228.674 405.977 223.903C403.46 213.132 408.926 199.339 401.196 190.189C399.675 189.606 399.436 189.784 397.769 190.165C390.896 191.513 376.592 194.363 372.967 201.104C366.837 212.503 358.278 228.923 359.699 242.189C360.688 251.434 368.683 248.62 373.876 245.182Z" fill="black"/>
<path d="M325.176 477.147C339.706 475.835 362.344 487.293 362.417 503.831C362.45 510.832 354.355 520.293 349.408 525.013C340.27 533.735 322.673 535.129 310.653 534.638C303.554 534.206 283.726 533.409 278.719 527.953C263.406 511.295 275.232 493.606 292.445 485.027C304.292 479.125 311.935 477.663 325.176 477.147ZM315.541 522.822C326.146 521.873 346.659 512.804 345.39 499.914C345.065 496.813 343.478 493.983 341.001 492.093C335.536 487.894 326.418 487.322 319.844 488.318C309.91 490.232 297.306 496.08 291.834 504.63C281.501 520.798 305.334 523.698 315.541 522.822Z" fill="black"/>
</svg>
