<svg width="187" height="173" viewBox="0 0 187 173" fill="none" xmlns="http://www.w3.org/2000/svg">
<path d="M85.0731 25.015C92.8327 24.6671 97.5308 28.8188 102.945 33.5765C110 39.7753 120.307 41.7063 129.154 38.6948C132.761 37.4671 135.838 34.6141 139.921 34.5703C164.622 31.1317 179.382 60.8442 161.669 78.4328C161.014 79.0833 159.639 79.8367 158.827 80.3948C157.591 81.2445 156.321 82.0121 155.101 82.8981C152.199 84.9995 149.599 87.489 147.374 90.2971C142.619 96.2129 139.864 107.331 141.386 114.657C142.078 117.987 143.354 120.702 143.873 124.359C145.52 135.938 140.683 146.194 130.876 152.456C128.386 154.018 121.491 155.643 118.473 155.946C108.226 156.323 98.6523 150.855 93.77 141.838C91.8729 138.341 90.7986 134.461 88.6765 130.834C85.4893 125.388 80.259 120.81 74.8748 117.618C72.3572 116.125 64.484 113.399 61.5216 113.025C54.1275 112.287 49.3276 113.798 42.3311 110.429C33.3456 106.102 27.3394 99.468 25.5812 89.4127C25.309 87.8549 24.699 86.4096 24.5336 84.6411C24.2915 82.0526 24.8018 80.0212 25.5189 77.5378C26.3236 73.3694 27.305 71.8358 29.5527 68.4101C32.9973 63.1605 37.0155 59.3273 42.964 57.0359C48.5169 55.0215 54.4932 54.0814 59.1802 50.2342C65.8453 44.7631 68.9635 37.4403 73.6893 30.5733C75.7891 27.5221 81.3447 25.3802 85.0731 25.015Z" fill="black"/>
</svg>
