<svg width="210" height="183" viewBox="0 0 210 183" fill="none" xmlns="http://www.w3.org/2000/svg">
<path d="M72.168 26.2671C74.626 26.1421 76.1481 26.1737 78.0215 26.5259C81.6176 27.202 84.4663 29.5513 89.3809 33.811C93.6785 37.5361 99.9974 43.1269 109.042 44.062C120.073 45.2025 129.674 39.6729 135.918 36.687C137.284 36.0641 138.826 35.2607 139.729 34.8149C140.858 34.2587 141.661 33.9097 142.356 33.6929C151.42 30.919 159.459 33.6772 163.376 40.8853V40.8862C165.331 44.4835 165.982 49.1051 165.066 52.769V52.77C164.724 54.1415 163.777 56.184 162.22 58.7778C160.716 61.2825 159.008 63.7167 157.446 65.9829H157.445C154.704 69.9615 149.535 76.169 149.576 85.3589C149.574 86.8968 149.68 88.4063 149.734 89.4771V89.4761C149.879 93.3616 151.087 96.617 152.171 99.0815C153.526 102.162 154.129 103.038 154.891 105.08V105.081C156.979 110.679 156.364 116.085 153.24 121.815C149.575 128.537 145.165 132.907 138.361 137.821C136.41 139.23 135.406 140.017 134.312 140.599L134.196 140.661L134.082 140.727C128.394 143.999 123.961 146.272 118.162 148.185H118.161C118.194 148.174 118.125 148.198 117.893 148.251C117.668 148.303 117.396 148.358 117.026 148.429C116.579 148.516 115.822 148.655 115.052 148.832L114.288 149.02C111.873 149.666 110.556 150.055 109.105 150.226L109.029 150.236C103.247 150.975 97.4122 149.338 92.8574 145.7L92.8486 145.694L92.5 145.404C88.93 142.332 86.6217 136.759 86.1094 130.583C86.0217 129.527 86.009 128.453 85.9814 126.958C85.956 125.577 85.917 123.844 85.7061 122.042C84.8866 115.039 82.4748 108.472 76.9062 102.901L76.3574 102.365C69.3407 95.6726 62.0869 93.761 56.3369 92.4321C50.489 91.0806 47.084 90.3995 43.6494 87.6675C39.8982 84.6835 36.9028 78.3919 36.2402 72.5151C35.8857 69.3705 37.0229 64.0934 39.6592 57.8687C42.1911 51.8904 45.5698 46.2838 48.2939 42.8726C52.7152 37.3361 59.5968 30.8788 64.7666 28.4634C64.9052 28.3986 65.176 28.2946 65.79 28.1089C66.2049 27.9835 67.3233 27.6676 68.1572 27.3882L68.1562 27.3872C70.1758 26.7108 71.1526 26.4009 72.168 26.2671Z" fill="black" stroke="black" stroke-width="16"/>
</svg>
