<svg width="188" height="191" viewBox="0 0 188 191" fill="none" xmlns="http://www.w3.org/2000/svg">
<path d="M124.941 19.8216C131.498 19.611 135.767 20.4 141.834 22.8298C151.958 26.7907 160.046 34.6821 164.255 44.7053C164.975 46.4043 166.414 50.3704 166.685 52.1858C168.113 61.7362 168.389 72.3749 163.895 81.1714C160.605 87.6109 156.424 93.5624 155.424 100.806C154.856 104.914 155.458 108.015 156.247 112.016C157.232 118.963 158.771 126.451 156.482 133.247C155.67 135.657 154.047 137.317 152.993 139.938C150.257 141.486 148.296 143.182 145.214 144.491C141.937 145.882 140.841 145.797 137.492 145.95C130.945 146.248 126.62 144.002 120.765 141.585C118.156 140.508 113.509 138.478 110.731 138.227C104.645 137.676 101.86 139.824 97.6216 143.746C95.9005 145.339 94.105 146.754 92.3941 148.495C91.4257 149.48 89.5285 151.544 88.5132 152.318C84.0298 155.738 80.0682 158.957 74.8471 161.29C73.7774 161.804 72.3917 162.034 71.3335 162.485C66.3533 164.605 61.263 164.92 55.9072 164.947C53.062 164.961 49.8681 164.996 46.9586 164.66L46.8626 164.645C39.9354 163.507 32.1589 159.198 26.9527 154.527C20.7092 149.175 17.005 142.939 16.5663 134.675C15.591 121.674 25.089 110.684 34.5686 102.94C43.6003 96.1188 43.6057 89.9981 35.5039 81.9392C25.9902 72.476 16.0449 59.7685 26.5832 46.8192C27.7617 45.3711 32.5859 42.2753 34.3977 41.6656C45.5078 37.9271 56.4199 40.4121 67.6609 41.7327C71.4029 42.1711 75.554 43.9229 79.3173 42.7473C84.829 41.0254 89.0106 37.6132 93.1634 33.7676C102.003 25.9788 113.112 20.3772 124.941 19.8216Z" fill="black"/>
</svg>
