<svg width="184" height="164" viewBox="0 0 184 164" fill="none" xmlns="http://www.w3.org/2000/svg">
<path d="M131.745 10.8011C139.463 10.3579 148.682 14.1574 153.552 20.2529C155.061 22.1419 158.277 27.1694 158.905 29.5919C159.841 33.1991 160.248 38.1883 159.89 41.8807C159.849 44.981 158.879 46.9639 157.764 49.6649C154.821 56.7935 148.379 59.7461 142.594 64.1367C139.196 66.7158 137.135 71.0352 136.075 75.0689C135.092 78.8097 135.208 80.8198 136.318 84.5995C138.378 95.0387 148.244 96.6465 154.313 103.894C159.668 110.362 160.283 116.829 159.731 124.913C159.218 132.431 155.525 137.62 149.928 142.484C147.844 144.295 146.766 144.301 144.508 145.417C139.767 147.797 134.728 148.457 129.48 147.829C121.513 146.875 115.673 142.559 110.893 136.309C110.184 135.383 109.185 133.806 108.472 133.064C105.766 130.245 102.759 127.726 98.6629 127.632C91.8164 127.095 88.1775 128.783 83.0397 132.983C78.9092 136.859 75.3494 137.666 70.1818 138.384C53.8685 140.653 41.4022 132.428 38.2465 116.004C38.0899 115.189 35.9813 110.72 35.4366 109.592C29.678 97.6676 19.297 87.0392 17.9386 73.3617C17.6898 69.8408 17.6387 64.4453 18.7672 61.074C19.2155 59.7353 21.0735 54.6649 21.6577 53.6455C23.4287 50.8242 25.9387 46.977 28.1311 44.5637C35.1437 36.8441 44.4548 30.0349 54.5194 27.0182C57.5463 26.1109 60.1088 24.6676 63.5163 24.4162C65.1658 24.2944 67.5825 23.2225 69.3449 23.1279C74.5482 22.5816 80.8649 22.2007 86.0585 22.8956C94.447 24.018 104.221 28.7172 111.239 21.4501C117.537 14.928 122.544 11.6437 131.745 10.8011Z" fill="black"/>
</svg>
