<svg width="1200" height="543" viewBox="0 0 1200 543" fill="none" xmlns="http://www.w3.org/2000/svg">
<g clip-path="url(#clip0_294_8789)">
<path d="M745.393 25.0284C750.021 25.6093 759.013 27.6982 759.172 33.2819C757.107 36.7642 742.83 45.2752 738.792 47.019C736.601 47.1796 734.927 45.6722 733.081 44.401C728.519 45.3861 715.417 53.2924 710.988 55.7823C689.612 67.7895 669.55 80.7181 650.903 96.7452C635.849 109.679 620.018 122.452 606.544 137.125C610.243 136.778 614.692 135.657 617.01 139.027C616.08 145.188 594.91 152.026 589.79 156.25C587.266 158.333 585.36 160.735 583.269 163.19C574.005 163.58 573.414 163.253 565.16 168.202C543.604 181.049 528.291 199.274 512.061 217.825C494.962 237.374 487.475 252.8 481.75 277.593C487.555 279.859 499.358 286.268 505.779 289.386C538.139 305.094 555.617 313.194 591.251 317.259C583.833 304.077 578.972 289.844 575.101 275.298C571.203 277.058 566.096 280.35 562.809 276.402C562.484 274.121 563.719 270.452 565.385 268.932C574.125 260.963 579.995 249.456 592.28 247.711C619.619 222.894 646.102 195.974 673.648 171.211C700.243 147.302 717.628 114.343 749.835 96.6795C750.566 96.2785 751.303 96.9894 751.887 97.3532C752.943 100.497 751.423 103.882 750.314 106.925C755.36 113.758 760.633 121.602 766.822 127.318C780.449 139.929 797.316 148.491 812.264 159.143C832.697 173.704 850.255 189.426 873.006 200.549C887.921 207.842 902.118 212.566 917.651 218.212C943.117 227.47 965.198 239.815 984.396 259.282C990.379 265.375 1003.74 273.979 988.068 278.582C991.793 301.433 1008.03 322.323 1028.1 333.28C1032.15 335.488 1044.13 340.99 1046.76 343.561C1047.24 345.511 1047.3 344.684 1046.16 346.747C1042.87 348.025 1035.49 344.615 1031.65 343.05C1012.11 336.151 983.493 310.353 980.75 288.755C978.22 268.822 989.356 282.324 969.587 262.451C947.135 239.884 931.111 235.514 901.726 226.381C864.844 214.92 831.435 189.777 800.942 166.871C779.864 150.97 756.297 141.47 743.952 116.616C738.859 120.92 732.185 126.365 727.689 131.082C714.082 145.363 701.704 161.804 687.447 175.544C674.664 187.863 660.566 200.005 647.298 211.888C628.551 228.671 610.269 245.475 591.078 261.731C595.009 288.822 624.301 349.648 639.349 373.211C645.677 383.283 652.995 392.697 661.196 401.313C666.927 400.086 674.909 397.461 680.859 395.858L724.249 384.498C734.27 381.923 748.627 378.145 758.82 377.967C770.893 377.756 785.682 381.404 797.867 381.846C811.261 382.331 824.728 379.558 838.116 382.699C841.171 383.416 846.457 384.368 848.25 387.095C848.661 397.027 835.845 396.762 828.932 395.899C820.06 394.79 811.547 394.669 802.648 394.744C771.962 397.722 742.185 396.629 712.196 403.423C701.213 405.913 683.429 409.117 672.957 412.377C649.868 419.565 636.274 425.014 611.538 426.546C586.934 427.958 562.271 427.77 537.694 425.976C519.771 424.572 501.456 422.211 483.583 421.273C443.786 419.184 404.779 426.294 365.329 429.751C355.981 430.567 330.758 442.628 321.81 447.115C307.99 453.959 294.403 461.267 281.074 469.027C271.429 474.583 255.295 484.427 245.525 488.688C212.699 502.999 166.411 505.913 131.29 500.955C91.4952 495.074 53.5433 474.974 28.2618 443.418C16.8711 429.206 19.5672 407.226 33.6029 395.763C34.9217 394.686 36.1708 394.937 37.6251 395.232C39.1637 398.457 33.5723 401.25 31.8703 405.285C24.6081 422.495 29.6185 435.745 41.9521 447.567C92.4481 495.976 173.059 499.475 236.235 477.497C240.385 476.056 244.824 473.56 248.869 471.761C304.481 440.603 352.064 406.698 419.375 406.539C428.743 395.167 434.896 373.949 433.595 359.116C431.67 337.18 425.625 319.109 408.653 304.366C406.159 318.517 400.804 326.637 388.322 334.197C377.666 340.649 366.926 342.475 355.194 337.766C353.103 339.171 350.246 340.514 347.952 341.675C347.585 343.488 346.807 348.314 345.77 349.555C337.905 358.974 340.363 370.077 330.713 379.55C316.382 393.617 303.113 392.01 289.325 379.296C267.341 359.024 258.158 332.866 257.108 303.464C254.928 250.635 282.295 207.826 338.207 206.592C369.12 205.882 395.502 218.442 417.618 239.573C435.916 257.057 453.477 287.65 454.12 313.516C463.795 296.873 466.675 277.304 472.435 259.377C476.284 247.632 481.768 236.488 488.726 226.272C503.037 204.944 530.655 176.532 552.124 162.063C558.712 156.757 569.649 152.755 575.566 147.049C589.723 133.401 602.467 118.162 616.757 104.626C627.389 95.3891 640.371 81.3765 652.032 73.7742C676.696 57.6927 717.071 30.6049 745.393 25.0284ZM455.994 333.961C458.821 334.916 473.511 337.317 473.803 338.172C479.796 355.699 451.452 345.444 445.009 341.773C446.105 357.686 447.317 371.035 442.209 386.531C440.184 392.676 437.184 399.455 435.44 405.483C451.614 404.945 475.321 404.743 491.415 405.957C509.046 408.014 528.138 408.914 545.291 411.442C554.834 357.809 526.272 330.302 480.128 311.348C477.681 310.343 473.918 309.171 471.711 307.979C466.174 319.815 464.554 323.867 455.994 333.961ZM474.622 299.731C497.87 307.313 516.437 315.359 534.619 332.475C559.017 355.448 560.099 380.218 555.863 411.764C578.985 412.229 615.462 412.343 638.1 408.337C641.713 407.71 645.737 407.106 649.29 406.366C623.644 379.311 613.151 359.928 596.158 327.313C559.15 326.923 537.455 315.953 504.79 300.573C497.033 296.921 487.053 290.288 479.119 287.873C477.806 291.545 476.259 296.286 474.622 299.731ZM300.202 283.766C330.322 259.302 363.61 257.118 396.787 277.619C403.814 266.242 404.756 263.744 409.092 251.349C390.51 231.075 367.43 221.321 340.143 221.668C282.101 224.951 270.107 268.342 272.281 318.62C272.58 325.547 274.199 333.282 276.788 339.663C279.098 316.298 281.673 300.955 300.202 283.766ZM375.76 326.538L378.436 324.475C378.327 320.074 365.501 318.165 361.743 316.643C358.414 329.685 365.613 330.572 375.76 326.538ZM319.107 375.118L320.455 373.437C318.686 370.852 305.889 366.222 302.534 365.708C304.897 374.259 309.798 380.853 319.107 375.118ZM385.792 319.25C387.537 316.789 389.813 313.834 391.003 311.131C380.402 308.58 376.539 304.813 368.133 302.118L362.651 309.53C369.362 311.716 379.477 315.883 385.792 319.25ZM312.991 348.161L323.531 351.915C326.921 352.507 326.931 353.069 329.627 351.952C330.684 349.906 330.55 350.83 330.032 348.457C328.658 346.538 326.984 345.477 324.617 345.078C320.986 346.003 316.488 347.02 312.991 348.161ZM416.862 260.796C415.101 264.78 406.859 280.658 407.473 283.999C408.474 285.463 408.503 285.68 410.08 286.283L411.197 285.224C417.009 278.837 418.804 276.126 423.208 268.719C421.122 265.342 420.045 263.316 416.862 260.796ZM326.006 366.674C327.016 364.226 328.07 362.216 328.033 359.574C326.715 358.219 325.518 358.244 323.356 358.003C315.875 357.17 311.023 354.865 304.344 351.752C303.111 354.717 302.754 354.274 303.28 356.941C308.037 362.658 319.442 363.442 326.006 366.674ZM390.915 305.66C390.392 296.928 387.58 297.517 379.604 297.938C380.953 301.063 387.491 305.919 390.915 305.66ZM428.158 278.093C424.477 284.231 422.067 287.867 417.2 293.229C425.373 302.079 432.648 309.679 438.12 320.44C439.586 322.764 439.252 323.151 441.43 323.835C446.924 318.825 433.992 284.817 429.437 278.672L428.158 278.093ZM355.884 278.038C335.224 279.602 319.921 283.521 305.738 299.613C294.151 312.759 291.492 327.055 291.039 344.169C291.012 345.584 291.405 347.265 292.45 348.277C296.237 344.72 301.209 339.672 305.367 336.929C318.188 330.774 324.213 327.933 337.783 334.875C340.342 332.97 343.638 330.363 346.294 328.736C343.808 306.991 361.215 292.109 379.043 283.813C369.946 279.55 366.222 278.268 355.884 278.038Z" fill="black"/>
<path d="M814.754 416.12C849.332 412.685 895.663 425.846 928.282 436.966C941.749 441.519 954.712 447.062 968.644 450.149C1003.68 457.915 1040.85 456.621 1074.98 467.314C1083.01 469.83 1090.19 472.239 1098.27 473.872C1105.89 475.412 1135.46 474.868 1140.05 478.612L1139.99 479.8C1130.1 487.467 1083.89 482.707 1071.76 478.233C1068.74 477.118 1063.74 476.853 1060.42 476.348C1025.61 471.045 990.266 468.682 955.887 460.809C940.693 457.357 927.047 451.197 912.225 446.597C888.179 439.455 864.194 434.895 839.311 432.518C806.447 429.372 781.192 434.994 749.988 443.79C734.237 448.376 718.531 453.361 702.833 458.38C688.356 463.006 669.902 470.952 655.2 473.481C640.013 476.096 617.647 474.988 601.988 473.852C596.171 473.321 590.009 470.646 584.324 469.836C541.499 463.723 501.151 444.453 457.127 449.863C451.293 450.58 434.314 455.632 430.182 454.098L429.938 452.704C434.154 445.436 474.848 439.163 483.891 439.117C502.645 439.024 521.371 444.812 539.606 448.927C579.849 458.001 629.142 469.671 669.617 456.063C717.329 440.026 763.913 419.53 814.754 416.12Z" fill="black"/>
<path d="M220.031 334.395C232.639 332.514 229.446 344.457 222.555 345.865C188.711 352.779 145.73 352.972 130.063 390.344C128.001 395.262 127.304 401.784 129.889 407.116C138.17 424.134 159.497 423.323 175.432 422.449C207.297 420.7 237.19 413.899 267.871 405.703C280.618 402.298 293.536 403.423 306.336 397.237C309.947 398.466 312.362 398.087 315.385 400.275C317.667 404.415 311.872 407.119 308.636 409.254C299.245 414.317 279.302 414.623 267.69 417.622C257.374 420.286 248.687 423.598 238.716 426.445C229.799 428.994 214.215 432.392 204.776 433.634C179.201 436.833 150.291 443.544 127.694 427.079C109.592 413.887 109.725 392.759 122.815 376.046C139.388 354.886 170.347 347.174 195.144 340.63C203.201 338.504 211.972 335.517 220.031 334.395Z" fill="black"/>
<path d="M754.291 42.7037C762.267 43.868 774.087 54.8596 782.381 58.527C813.473 72.282 836.303 88.7 860.608 112.073C881.001 131.684 899.953 151.013 918.826 172.255C921.403 175.157 925.566 178.407 928.707 180.814C944.446 189.927 961.598 201.921 977.217 210.61C999.596 221.866 1019.7 230.53 1040.69 244.883C1059.13 257.496 1072.25 278.825 1091.32 289.688C1093.48 290.924 1094.07 290.355 1095.31 292.672L1094.44 294.609C1078.27 297.439 1059.94 273.507 1048.42 262.852C1042.93 257.76 1037.14 253.006 1031.09 248.616C1011.28 234.266 986.049 224.797 964.341 213.277C958.032 209.933 953.045 204.357 947.673 201.135C937.672 195.137 927.047 190.575 917.538 183.51C901.999 172.106 890.291 156.312 876.957 142.883C862.467 128.288 845.447 110.588 829.317 98.1676C822.69 93.0585 815.77 88.3489 808.585 84.0655C791.1 73.7602 771.663 65.828 756.702 51.6143C753.654 48.7156 752.585 46.7076 754.291 42.7037Z" fill="black"/>
<path d="M939.93 393.564C961.558 393.542 988.566 395.403 1009.66 399.833C1018.82 401.775 1027.96 403.804 1037.08 405.919C1043.84 407.506 1055.05 410.807 1061.67 410.722C1093.97 410.307 1126.17 404.827 1158.33 402.513C1159.88 402.402 1161.9 403.202 1162.92 404.316L1161.94 405.458C1160.6 406.065 1081.33 413.776 1073.96 414.307C1076.44 414.854 1078.99 415.611 1081.44 416.266C1103.56 422.157 1126.31 424.67 1149 427.189C1154.26 427.774 1176.42 429.399 1178.12 434.277C1175.05 441.692 1143.61 437.961 1135.71 437.53C1117.79 436.448 1093.16 432.087 1075.75 427.952C1059.05 423.987 1044.96 418.347 1027.75 417.477C1015.29 416.847 939.558 418.909 934.159 416.795L934.584 416.054C942.566 412.259 1002.07 414.18 1016.31 413.37C995.585 406.86 944.99 399.172 923.003 399.275C918.374 399.27 913.746 399.451 909.131 399.816C903.991 400.25 888.671 403.464 885.45 401.329C893.399 395.769 928.893 393.93 939.93 393.564Z" fill="black"/>
<path d="M754.424 358.378C757.685 358.125 759.126 357.625 761.563 360.01L761.311 361.441C755.108 367.914 721.713 365.398 709.906 366.146L708.066 371.836C694.951 375.605 678.462 377.014 665.885 381.147C664.092 381.753 660.918 381.14 659.218 380.35C654.011 375.191 663.886 367.595 668.422 366.322C682.812 362.287 698.836 359.461 713.777 358.884C727.39 358.357 740.725 359.564 754.424 358.378Z" fill="black"/>
<path d="M551.473 484.984C554.09 484.812 554.495 484.367 556.6 485.402L556.68 486.584C548.007 499.727 500.228 494.868 485.968 495.804C464.002 497.244 445.678 495.094 424.152 491.297L420.238 490.308C418.47 488.482 418.85 489.338 418.515 487.095C422.837 483.398 441.9 487.613 448.735 487.579C460.521 487.745 473.189 485.993 484.911 486.597C509.883 487.872 527.022 492.777 551.473 484.984Z" fill="black"/>
<path d="M379.768 373.497C398.552 372.579 397.127 389.177 386.136 398.87C382.032 402.489 376.301 402.57 370.974 401.775C367.074 400.771 358.584 396.693 357.618 392.601C355.387 383.15 373.473 375.841 379.768 373.497ZM372.766 391.523C378.069 391.899 382.084 389.971 383.863 384.178C384.076 383.483 383.302 382.725 382.864 382.092L381.734 381.743C378.525 383.596 371.993 386.336 370.219 387.978L370.029 389.448C371.159 390.724 371.224 390.752 372.766 391.523Z" fill="black"/>
<path d="M925.261 296.864C925.905 296.934 928.694 297.221 928.953 297.652C941.065 317.757 952.394 339.059 964.613 359.268C965.762 361.169 967.655 366.942 967.967 367.88C967.203 369.38 965.642 371.531 964.66 372.989C964.514 373.049 964.374 373.14 964.215 373.167C963.292 373.324 961.944 373.121 961.16 372.608C953.623 367.673 926.317 311.049 924.417 300.581C924.065 298.643 924.185 298.378 925.261 296.864Z" fill="black"/>
<path d="M1030.58 316.084C1044.37 318.252 1055.95 333.554 1066.19 341.612C1072 346.096 1078.48 349.629 1085.4 352.078C1091.44 354.247 1107.92 356.822 1110.33 360.214C1110.23 362.498 1110.2 361.868 1108.39 363.957C1083.14 365.484 1058.87 347.965 1042.79 330.878C1039.39 327.255 1030.57 325.463 1028.12 320.27C1028.71 317.618 1028.63 318.312 1030.58 316.084Z" fill="black"/>
<path d="M177.577 370.214C178.514 370.191 179.452 370.184 180.39 370.193C183.161 370.227 184.801 370.37 186.81 372.443C186.832 372.61 187.043 373.967 187.007 374.009C185.076 376.324 178.239 377.359 174.637 382.654C173.163 384.823 172.358 387.358 172.965 389.978C173.791 393.537 176.8 396.37 179.666 398.407C197.33 410.959 217.906 400.42 223.81 404.337C224.177 406.905 224.059 406.182 223.039 408.811C202.447 414.469 173.698 413.334 163.073 391.471C163.637 379.635 166.182 374.874 177.577 370.214Z" fill="black"/>
<path d="M144.784 333.746C146.559 333.5 147.046 333.126 148.471 333.801C145.356 338.284 133.775 340.931 127.868 344.824C110.353 356.366 104.016 364.121 91.3434 378.995C83.0041 376.105 85.1397 369.608 89.5975 364.183C105.24 345.146 120.879 336.949 144.784 333.746Z" fill="black"/>
<path d="M715.483 337.128C718.638 336.774 723.924 336.819 725.989 339.559C726.288 341.481 724.807 345.079 723.379 345.395C705.449 349.357 688.622 350.522 670.865 356.348C667.605 357.568 661.176 359.258 658.806 355.87C661.794 347.706 706.558 337.965 715.483 337.128Z" fill="black"/>
<path d="M1050.12 288.618C1056.98 289.736 1070.6 304.907 1077.09 309.218C1080.86 311.728 1091.46 317.041 1093.3 320.193C1092.79 322.483 1092.85 321.857 1090.63 323.647C1080.23 325.531 1063.8 310.359 1055.74 304.323C1050.65 300.517 1044.89 294.634 1050.12 288.618Z" fill="black"/>
<path d="M1054 309.819C1057.9 311.244 1078.64 332.381 1084.81 336.271C1088.01 338.288 1096.34 343.003 1098.87 344.858C1098.71 346.79 1098.18 346.747 1096.58 348.42C1085.28 350.62 1071.08 336.002 1063.59 328.75C1059.54 324.836 1052.86 319.154 1051.65 313.597C1051.27 311.893 1052.94 310.793 1054 309.819Z" fill="black"/>
<path d="M1015.2 342.447C1020.05 342.972 1042.77 371.332 1043.98 377.695C1044.31 379.442 1043.08 380.943 1042.1 382.097C1030.26 381.551 1023.92 361.954 1016.94 353.616C1015.54 351.936 1013.57 348.431 1012.47 346.435C1012.67 344.27 1013.3 344.335 1015.2 342.447Z" fill="black"/>
<path d="M905.784 325.906C910.492 337.302 916.376 347.739 921.164 359.031C922.24 361.568 920.36 364.946 918.295 366.574C909.118 368.019 903.393 338.874 900.684 332.99C902.278 331.243 904.376 327.969 905.784 325.906Z" fill="black"/>
<path d="M211.928 305.847C216.834 305.602 222.895 304.603 223.347 311.215C220.981 316.959 216.143 315.886 211.139 315.587C207.107 315.932 202.039 317.266 200.679 312.445C202.17 307.483 207.547 306.829 211.928 305.847Z" fill="black"/>
<path d="M366.021 355.479C368.747 355.333 370.907 355.085 372.661 357.482L372.177 359.047C367.676 363.106 366.415 362.787 360.477 363.783C357.66 367.333 356.045 369.367 352.734 372.538C351.03 373.679 349.374 373.924 347.608 372.971C345.097 364.218 359.516 357.565 366.021 355.479Z" fill="black"/>
<path d="M900.684 332.99C899.296 328.514 895.132 317.561 897.105 313.656C899.07 313.407 899.362 313.348 901.182 314.082C902.537 315.707 904.622 322.988 905.784 325.907C904.376 327.969 902.278 331.243 900.684 332.99Z" fill="#1C1A1B"/>
<path d="M154.712 316.693C157.057 316.959 158.539 317.144 159.995 319.022C159.6 321.633 159.596 320.986 157.745 323.272C155.01 322.906 154.301 322.568 152.773 320.836C152.982 318.238 152.906 319.01 154.712 316.693Z" fill="black"/>
</g>
<defs>
<clipPath id="clip0_294_8789">
<rect width="1200" height="543" fill="white"/>
</clipPath>
</defs>
</svg>
